<svg xmlns="http://www.w3.org/2000/svg" xmlns:xlink="http://www.w3.org/1999/xlink" width="408.04" height="312.78" viewBox="0 0 408.04 312.78"><defs><style>.cls-1{isolation:isolate;}.cls-2{fill:#edf9fc;}.cls-3,.cls-7{fill:#525ecc;}.cls-3,.cls-5{opacity:0.2;}.cls-4{fill:#9dc7ed;stroke:#9dc7ed;stroke-miterlimit:10;}.cls-28,.cls-4{stroke-width:4px;}.cls-5{fill:#547fcc;}.cls-6{fill:#8997e5;}.cls-8{fill:#fff;}.cls-28,.cls-30,.cls-31,.cls-32,.cls-33,.cls-9{fill:none;stroke:#fff;stroke-linecap:round;stroke-linejoin:round;}.cls-9{stroke-width:3px;}.cls-10{fill:url(#linear-gradient);}.cls-11{fill:#00b4d2;}.cls-12,.cls-15{fill:#049cbe;}.cls-13{fill:#6ccce6;}.cls-14{fill:#f6fbfd;}.cls-15,.cls-29,.cls-32{opacity:0.5;}.cls-15{mix-blend-mode:multiply;}.cls-16{fill:#c5e9fa;}.cls-17{fill:#333d61;}.cls-18{fill:#c4e8f7;}.cls-19{fill:#e8f5f8;}.cls-20{fill:#9dd9ef;}.cls-21{fill:#7d90b2;}.cls-22{fill:#a3b2cc;}.cls-23{fill:#5c7099;}.cls-24{fill:#94c6bb;}.cls-25{fill:#46494b;}.cls-26{fill:#465578;}.cls-27{fill:#4c5d7f;}.cls-30,.cls-31,.cls-32,.cls-33{stroke-width:2px;}.cls-31{stroke-dasharray:10.29 5.14;}.cls-33{stroke-dasharray:15.6 5.2;}.cls-34{fill:#ffca83;}.cls-35{fill:#ffa733;}</style><linearGradient id="linear-gradient" x1="114.52" y1="163.36" x2="114.52" y2="163.36" gradientUnits="userSpaceOnUse"><stop offset="0" stop-color="#39bb7a" stop-opacity="0.2"/><stop offset="0.99" stop-color="#39bb7a" stop-opacity="0"/></linearGradient></defs><title>11-online-beginners</title><g class="cls-1"><g id="Layer_2" data-name="Layer 2"><g id="Layer_7" data-name="Layer 7"><path class="cls-2" d="M361.13,46.27c73.8,63.77,57.57,160.2-28,188.19C248.45,262.14,225,209.82,159.24,274.74,19,413.16-76.94,136.87,83.63,35.39,173.41-21.37,302.92-4,361.13,46.27Z"/><ellipse class="cls-3" cx="170.38" cy="292.18" rx="42.35" ry="2.24"/></g><g id="Layer_9" data-name="Layer 9"><rect class="cls-4" x="114.43" y="25.89" width="247" height="184" rx="8.98" ry="8.98"/><rect class="cls-5" x="197.43" y="74.89" width="84" height="74" rx="5.37" ry="5.37"/><path class="cls-3" d="M306.8,77.89h56.63a0,0,0,0,1,0,0v74a0,0,0,0,1,0,0H306.8a5.37,5.37,0,0,1-5.37-5.37V83.26A5.37,5.37,0,0,1,306.8,77.89Z"/><path class="cls-6" d="M163.41,211.75h29.46c16,0,27.22,7.17,27.22,20.94,0,6.72-3.25,13.55-9.3,17v.22c9.18,2.8,12.54,11,12.54,18,0,17.47-14.56,23.86-30.46,23.86H163.41Zm29.68,31c4.93,0,7.06-3.58,7.06-7.39s-2.13-6.83-7.39-6.83H183v14.22ZM194.77,275c5.71,0,8.51-3.92,8.51-8.4s-2.69-8.18-8.4-8.18H183V275Z"/><ellipse class="cls-3" cx="253.01" cy="292.18" rx="27.7" ry="2.24"/><ellipse class="cls-3" cx="65.55" cy="291.18" rx="20.81" ry="2.24"/><path class="cls-7" d="M254.5,233.33c15.54,0,22.75,8.66,22.75,8.66l-8.1,12.88s-5.55-5.55-13.43-5.55c-9.1,0-13.65,6.88-13.65,13.65s4.66,14.21,14.32,14.21c8,0,15.65-6.88,15.65-6.88l7,13.43s-8.55,9.43-24.53,9.43c-20.42,0-31.85-14.21-31.85-30C222.64,247.87,234,233.33,254.5,233.33Z"/><circle class="cls-8" cx="335.43" cy="42.89" r="2"/><circle class="cls-8" cx="342.43" cy="42.89" r="2"/><circle class="cls-8" cx="349.43" cy="42.89" r="2"/><rect class="cls-8" x="156.43" y="36.89" width="169" height="13" rx="6.5" ry="6.5"/><polyline class="cls-9" points="132.43 38.89 128.43 42.89 132.43 46.89"/><polyline class="cls-9" points="143.43 46.89 147.43 42.89 143.43 38.89"/><path class="cls-10" d="M114.52,163.36"/><path class="cls-6" d="M126.71,265.58H87.91l-7.48,26.1H49.11L91.39,167.27h32l42.28,124.42H134.37Zm-19.49-70s-2.78,13.57-5,21.4L95,241.22h24.54l-7-24.19c-2.26-7.83-5-21.4-5-21.4Z"/><path class="cls-7" d="M183,234.17v-5.62h9.74c5.09,0,7.24,2.94,7.38,6.48a56.78,56.78,0,0,0,12.74-2.88c-.94,2.8-.54,8.77.48,15.74a20.08,20.08,0,0,0,6.72-15.2c0-13.78-11.2-20.94-27.22-20.94H163.41v13.62C166,227.76,173.09,232.09,183,234.17Z"/><path class="cls-7" d="M223.33,268c0-6.2-2.6-13.26-9.46-16.78,1.72,10.42,4.5,22.25,6.2,29.14A22.77,22.77,0,0,0,223.33,268Z"/><path class="cls-7" d="M138.49,211.73c-3-1.23-9.54-9-10.87-11.88-.25-.54,2.21,5.11,1.82,4.64-3.18-3.82-15.52-22-16.8-37.2h11.45Z"/><path class="cls-11" d="M316.64,167.39c3-.53,5.88,1.87,6.54,4.8s-.41,6-1.88,8.62-3.34,5-4.5,7.81a27.62,27.62,0,0,0-1.68,10.79,15.41,15.41,0,0,1-.53,5.28,7.13,7.13,0,0,1-6.13,4.6,3.48,3.48,0,0,1-2.33-.55c-1.24-.94-1.21-2.79-1.05-4.34,1-9.82,2-19.77,5.55-29C310.63,175.42,311.35,168.33,316.64,167.39Z"/><path class="cls-12" d="M312.65,172.15a1.13,1.13,0,0,0,.8-.63,3.78,3.78,0,0,0,.44-1.41,10.74,10.74,0,0,0,0-1.44,8.48,8.48,0,0,0-2.25,3.15,2.72,2.72,0,0,0,.62.27A1.11,1.11,0,0,0,312.65,172.15Z"/><polygon class="cls-13" points="313.88 168.68 313.88 168.68 313.88 168.68 313.88 168.68"/><polygon class="cls-13" points="311.62 171.83 311.62 171.83 311.62 171.83 311.62 171.83"/><path class="cls-11" d="M320.06,164.29c3-.53,5.88,1.87,6.54,4.8s-.41,6-1.88,8.62-2.2,6.25-3.17,9.1c-1.27,3.75-2.71,9.29-3.66,12.85-.46,1.72-.24.8-.77,2.56-.78,2.59-2.55,3.8-5.26,4a3.48,3.48,0,0,1-2.33-.55c-1.24-.94-1.21-2.79-1.05-4.34,1-9.82,2-19.77,5.55-29C314.05,172.32,314.77,165.23,320.06,164.29Z"/><path class="cls-14" d="M282.57,200.34a5.09,5.09,0,0,0,3.35,3.28c-8.37-2-21.71-6.67-29.36-10.7l2,2.44c-8.41-2.78-12.82-5.65-20.55-10.07l1,2.94c-4.21-2.48-8.59-5-13.32-6.15l-.21,0c-1.84-1.91,3.32-4.58,1.73-6.68-1.74-2.29,7.68-14.59,13.56-12.38-2.65-.47,11.22,1.29,17.35,4.23-1.76-.09-4.72-.84-5,0,8.09-.4,29.56,10.09,33.7,14.53a17.59,17.59,0,0,0-6-1.93c2.71,1.87,22.73,15.18,26.63-.94.41-2.64.59-5.62-1.17-7.78,1.9.83,2.85,2.81,3.57,4.7a4.88,4.88,0,0,1,.69-4.39,11.51,11.51,0,0,0,1.21,6.47,8.28,8.28,0,0,0-.08-4.84,8,8,0,0,1,3,7.26,4.58,4.58,0,0,1,3.85-3,7.24,7.24,0,0,0-2,5.94,1.5,1.5,0,0,0,.77-1.29,4.75,4.75,0,0,1,1.6,2.84,10.72,10.72,0,0,1,0,3.23,39.17,39.17,0,0,1-1.25,6.27,5,5,0,0,0,1.33-2.37,18,18,0,0,1-.53,6.35l-.86,2.85c-.45,1.48-2.21,4.69-2.94,7C307.05,205.89,291.48,206.45,282.57,200.34Z"/><path class="cls-12" d="M315.57,167.68s-1.33,1.89-1.44,7.18a13.52,13.52,0,0,1,.65-6.8A5.4,5.4,0,0,1,315.57,167.68Z"/><path class="cls-15" d="M315.57,167.68s-1.33,1.89-1.44,7.18a13.52,13.52,0,0,1,.65-6.8A5.4,5.4,0,0,1,315.57,167.68Z"/><path class="cls-16" d="M237.36,192.62c-4.37-2.26-10.85-9.84-12.57-11.95-1.88-2.3,6.81-17.4,12.84-15.62a9.26,9.26,0,0,0-6.06,1.65,39.67,39.67,0,0,1,22.33,2.07c-1.77.08-4.79-.42-5,.54,8.08-1.28,31.26,7,35.67,11.38a16,16,0,0,0-5.77-1.56,47.29,47.29,0,0,0,8.82,3.37,10.44,10.44,0,0,0,6.28-1,3.27,3.27,0,0,1-1.44,1.17,9.51,9.51,0,0,0,6.4-.57,4.43,4.43,0,0,1-2.16,2.05c2.46.13,4.91-.93,6.72-1.74,0,3.87-4.47,9.33-5.37,13.07a59.79,59.79,0,0,1-1.72,5.83,10.13,10.13,0,0,0-.9,4.68c-2-1-4-2.14-5.9-3.28a6.43,6.43,0,0,0,4.23,3.52c-8.52-1.35-26.52-7.1-34.43-10.67.7.81,1.17,2.34,1.87,3.16a122.3,122.3,0,0,1-25-9.21Z"/><path class="cls-13" d="M268.51,173a10.37,10.37,0,0,1-4.49,7.45c4.3-1.56,5.28-4.51,5.13-7.18Z"/><path class="cls-16" d="M313.77,194.19l.1-.21Z"/><path class="cls-16" d="M311.64,179.86A11.28,11.28,0,0,1,308,182.1l-.11,0q-.49-1.43-.95-2.87a5.81,5.81,0,0,1-2.12,3.76h0a27.23,27.23,0,0,0-2.91,1.21c-2.16,1.06-3.72,3.08-5.51,4.76-.78.74-1.62,1.42-2.33,2.24a16.85,16.85,0,0,0-2.62,4.46,28.41,28.41,0,0,0-1.78,5.32,6.21,6.21,0,0,0,0,3.18c.36,1.11-6.41-.16-5.34.12,4.48,1.17,7.68,3.9,9.73,5.24,0,0-2.51-2.57-2.5-2.57,2.9-.17,13.8,5.6,15,6.54.1-.3-.52-.94-1.21-2,1.92.78,8.27.41,9.75-3.86.93-2.69,1.64-4.26,2.5-7a13.6,13.6,0,0,1-2.09,2.81c-.63.61-1.59,1.14-2.32.67-3.52-2.28-.42-7.92.59-10-.65,1.25-3.08,4.38-4.76,1.9-1.88-2.79-1-5.55-.21-8.73v0C309.38,185.51,311,181.7,311.64,179.86Z"/><path class="cls-12" d="M315.32,168.14a14.22,14.22,0,0,0-1.07,4.57c.75.12,3,.09,4.32-3.69,0,0,1.23-2.62-.89-3.74A7.75,7.75,0,0,0,315.32,168.14Z"/><path class="cls-17" d="M241.73,155.25s4.08.71,6.39-.35,5.75-3.26,6.23-4.84c.67-2.22-1.18-3.58-4-1.3s1.17-.61,3.72-2.58c3.56-2.75,1.47-5.59-1-3.92s-.19-.65,2.16-3.38c1.72-2,4.1-4.13,3.42-4.68-2-1.59-3.39-.1-8.53,3.2-1.94,1.24-6.33-1.17-5.53,4.71.27,1.94,3.88-1.46,5.29-2.25s2.87-3.39,1-4.17a28.17,28.17,0,0,1-8.38,3.12c-5.53,1-7.43,7.4-10,9.3s1.45,6.48,1.45,6.48A11.46,11.46,0,0,0,241.73,155.25Z"/><path class="cls-14" d="M226.82,149.77a27.09,27.09,0,0,1,5.12-3c3.18-1.48,4.91-.86,4.91-.86l-2.74,1.81s3.59-.14,5.28-1.33,1.34-.73.09,2.6-7.64,2.08-7.64,2.08Z"/><path class="cls-8" d="M146.53,142.85s-3.33-9,3.32-15.6c6.26-6.21,15.55.37,16.31,3.12q1,3.64,2.07,6.78c8.48,25.18,28.41,20.26,36.24,22.32,0,0-10.34,6.23-8.78,5.62,7.14-2.81,22.73-9.09,31.14-15.32,3.87-2.87,20.94,3.46,20.94,3.46s-25.15,23-46.44,26.6S157.7,182.54,146.53,142.85Z"/><path class="cls-18" d="M146.35,133a20.34,20.34,0,0,0,2.88,4.26,14.18,14.18,0,0,0,8.61,4.82s4.8.37,5.49,3.77,7.72,9.3,11.54,11.61l-8.94-2.07s7,6.7,12.1,7.57l-8.7-.64s6.94,8.16,13.84,4.84c0,0-1.41,3.26-4.06,4a33.17,33.17,0,0,1,12.07-.42c7,1,12.53,2.33,16.12-.08a15.46,15.46,0,0,0,5-5.18L211.17,170s4.19-6.55,6.59-8.64-2.86,3.41-2.18,5.38,10.17-7.69,11.26-11.92.26,4.47-.55,5.89,5.12-9.29,9.62-11.23a25.47,25.47,0,0,1,7.8-2.13l-2.25,2.3a3.75,3.75,0,0,0,4.41-1c2.13-2.22-.34,2.76-1.84,3.41s3.29,1.54,4.77-.92-2.51,7.24-11.4,11.72-14.31,11.74-19.45,12.56a31.13,31.13,0,0,1-7.48.55l7.72,1.79a43.14,43.14,0,0,1-16.25,4.43c-9.34.63-19.59.24-26.18-2.4l3.08,3.43s-18-4.63-23.83-18.39l-.06,4.46S138.39,144,146.35,133Z"/><path class="cls-8" d="M170.8,139.51a44.75,44.75,0,0,1-6.54-12.6c-2.07-6.78,4.86,15.21,4.86,15.21l5.23,3.44S174,144.71,170.8,139.51Z"/><path class="cls-8" d="M179.93,158.77s7.91,5.6,10.48,5.7-.16,1-1.77,1.6S181.55,161.73,179.93,158.77Z"/><path class="cls-19" d="M149,116.23s12,5.25,15.49,21.53c4.23,19.94,21.42,14.19,30.74,27.63,10.2,14.7-37.72,24.4-45.8,16.86S142,126.9,149,116.23Z"/><path class="cls-20" d="M149,116.23c.13-2.81-12.22-3.5-14.41-1.74-11.46,9.15-25.58,28.2-13.08,58,21.9,52.22,58.44,40.5,92.77,24.73,10.87-5,20.39-8.47,18.1-9.69-3.3-1.76-4.41-6.3-1.16-4.44A113.24,113.24,0,0,0,269.07,197c18.55,3.2-1.08-1.37-9.77-7-25-16.13-18.09-26-18.09-26-2.06-1.15-4.86-.47-7.2-.19-25.79,3.15-40.48,8.45-58.31,10.78C157.08,177.06,148.15,134.32,149,116.23Z"/><path class="cls-19" d="M142.49,131c-1.27,10.48,5.63,22.95,5.63,22.95s-3-2.65-2.74-2c.36,1,10.89,12.6,10.89,12.6s-4.56-3-3.72-1.62c1.83,3.1,6.5,6.38,8.32,7.94s10.13-.14,10.13-.14l-23.22-47.13S142.71,129.18,142.49,131Z"/><path class="cls-21" d="M273.58,119.5l-14.7,3.89.34-1.87a1.75,1.75,0,0,1,1.2-1.35l12.45-3.92a.94.94,0,0,1,1.2,1.1Z"/><polygon class="cls-22" points="262.62 157.27 222.53 159.99 223.32 163.85 252.44 161.53 262.62 157.27"/><path class="cls-23" d="M261.61,120.43l11.31-3.76a.91.91,0,0,1,1.17,1.08l-9.72,38.88a2.46,2.46,0,0,1-1.52,1.72l-13,4.91,9.94-40.83A2.77,2.77,0,0,1,261.61,120.43Z"/><polygon class="cls-21" points="250.72 161.31 248.01 160.68 259.49 121.3 260.18 121.41 250.72 161.31"/><circle class="cls-21" cx="248.93" cy="161.92" r="1.95" transform="translate(-10.2 16.89) rotate(-3.81)"/><path class="cls-21" d="M223.24,138.35H226a0,0,0,0,1,0,0v47.81a2.56,2.56,0,0,1-2.56,2.56h-.22a0,0,0,0,1,0,0V138.35A0,0,0,0,1,223.24,138.35Z" transform="translate(372.88 -71.46) rotate(86.19)"/><rect class="cls-24" x="223.66" y="161.86" width="3.29" height="0.23" transform="translate(-10.26 15.32) rotate(-3.81)"/><rect class="cls-24" x="219.92" y="162.11" width="3.29" height="0.23" transform="translate(-10.29 15.07) rotate(-3.81)"/><rect class="cls-25" x="215.74" y="163.7" width="2.92" height="0.66" transform="translate(-10.41 14.79) rotate(-3.81)"/><rect class="cls-25" x="211.42" y="164.04" width="2.92" height="0.66" transform="translate(-10.45 14.5) rotate(-3.81)"/><path class="cls-17" d="M206.85,174.15s3.45,2.55,6,2.27,13.53-5.48,14.41-6.88,2.35-3.07-1.08-1.8-3.86,1.24.48.08,4.84-5.52,3.46-5.14c-2.84.77-9,1.87-8.29,1.76s5.23-.82,6.31-1.16a4,4,0,0,0,2.74-2.73c.32-1.38-8.79-.55-10.93.29s-5.17-4.1-6.24,1.73c-.36,1.93,4.06-1,5.65-1.29s4.16-1,4.14-3-9.78.16-14.1,1.77-6,3.5-9,4.48-.65,6.61-.65,6.61A11.46,11.46,0,0,0,206.85,174.15Z"/><path class="cls-8" d="M194.41,164.29a27.09,27.09,0,0,1,5.82-1.29c3.48-.41,4.93.72,4.93.72l-3.17.87s3.46,1,5.43.39,1.5-.28-.73,2.5-7.9-.41-7.9-.41Z"/><path class="cls-19" d="M116.27,133s-.34-9.59,8-13.78c7.89-3.94,14.65,5.22,14.51,8.07q-.18,3.77-.16,7.09c.18,26.57,9.75,32.73,16.54,37.14a8.12,8.12,0,0,0,4.55,1.34c7.66-.44,37-14.06,38.31-5.59.75,4.76,11.11,7.26,11.11,7.26s-31.07,14-52.43,10.74S114.46,174.19,116.27,133Z"/><path class="cls-20" d="M131.61,143.24c-2.37-7.51-.71-11.34.35-13.08a15.63,15.63,0,0,0,.63,6.46l3.61-8.92s-7.74-8.21-10.52-7.53-3.1.51-6.59,3.5c-3.76,3.22,1.86,19,1.86,19Z"/><path class="cls-20" d="M119.19,123.57a20.34,20.34,0,0,0,1.4,4.95,14.18,14.18,0,0,0,6.67,7.27,11.71,11.71,0,0,1,3.75,5.46,44.14,44.14,0,0,0,7.62,14.47L130.78,151s4.54,8.55,9.13,11l-8.06-3.33s4,9.92,11.63,8.93c0,0-2.36,2.65-5.1,2.51A33.17,33.17,0,0,1,150,173.43c6.36,3.11,11.18,6.13,15.34,5a15.46,15.46,0,0,0,6.35-3.37L169.2,179s6-4.91,9-6.14-3.79,2.34-3.75,4.43,12.06-4.13,14.42-7.8-1.15,4.33-2.36,5.42,7.77-7.22,12.65-7.66a25.47,25.47,0,0,1,8.07.41l-2.86,1.48a3.75,3.75,0,0,0,4.5.43c2.71-1.44-1.18,2.52-2.81,2.66s2.64,2.49,4.82.62-4.65,6.09-14.5,7.56-17.26,6.68-22.41,5.84-4.32,1.23-4.32,1.23l3.82,1.07a43.14,43.14,0,0,1-16.82-.88c-9.07-2.32-18.68-5.9-24.12-10.47l1.85,4.22s-15.64-10-16.88-24.92L116,160.69S108.18,131.53,119.19,123.57Z"/><path class="cls-19" d="M143,158.56s5.76,7.8,8.17,8.69-.46.9-2.18,1S143.63,161.88,143,158.56Z"/><path class="cls-18" d="M185.74,159.44a3.67,3.67,0,0,0,2.5,3C190.52,163.15,191.29,161.58,185.74,159.44Z"/><path class="cls-18" d="M173.82,151.88s-7.13-2.81-12.18.91S164.83,149.23,173.82,151.88Z"/><polygon class="cls-16" points="121.18 107.12 122.88 109.23 122.64 103.86 121.18 107.12"/><polygon class="cls-16" points="117.82 97.13 120 99.89 122.95 94.29 117.82 97.13"/><polygon class="cls-16" points="117.2 94.42 119.92 95.4 125.43 89.16 117.2 94.42"/><path class="cls-16" d="M120.16,86.74s2.38,1.57,1.68,2.91l6.61-4.73S126.47,81,120.16,86.74Z"/><path class="cls-16" d="M123.59,79.08s1.56,2.18.61,3.86l6.47-.57S131.52,76.93,123.59,79.08Z"/><path class="cls-16" d="M126.5,71.56s4.25,4.62,1.77,7.08c0,0,4.78,1.2,5,2.52C133.29,81.17,137.55,74.22,126.5,71.56Z"/><path class="cls-16" d="M135,67.52s1.55,3.64-1.37,5.81l4.2,5.62S143,72.78,135,67.52Z"/><path class="cls-16" d="M141.34,69.17s-.41,3.62-1.47,2.74L142,73.68S143.49,70.78,141.34,69.17Z"/><path class="cls-16" d="M156,70.1s-1.77,3.08-.19,5.09L150,78.27S148.86,71.18,156,70.1Z"/><path class="cls-16" d="M164.36,73.77s-3.75,2.5-1.76,5.87l-9.67.69S155,72.77,164.36,73.77Z"/><path class="cls-16" d="M168.81,84.09s-3,.82-3.15,2.28l-7.21-3.88S163.34,78.88,168.81,84.09Z"/><path class="cls-16" d="M171.13,92.14s-2.65-.79-2.75.86l-5.25-6.24S169.89,88.34,171.13,92.14Z"/><path class="cls-16" d="M173.05,99.7s-3.44-.95-4.3.62L166,93.08S171.33,97.09,173.05,99.7Z"/><path class="cls-16" d="M172.37,106.72s-2.55-.29-3.72,1.66l-3.6-4.76Z"/><path class="cls-16" d="M168.46,115c-.25-1-2.13-2.54-2.13-2.54l1.56-3.57A21.48,21.48,0,0,1,168.46,115Z"/><path class="cls-13" d="M118.91,119.32a15.86,15.86,0,0,1,2.33-2.78,50.79,50.79,0,0,1,1.54,7.19l1-1.71,4,6.11,2.06-2.4,4,5.58,2.17-2.17a18,18,0,0,1,1.87,3.71,9.7,9.7,0,0,1,.84-2.79l1.84,3.06c.77-.48,1-1.66,1.8-2,.58-.22,2.21,1.66,2.38,2.26l2.63-2.85a16.74,16.74,0,0,0,2.74,2.43l3-3.12,1.64,1.71,4-5.33-.11,2.88q2.13-4.63,3.85-9.43c-3.37,2.42-6.86,4.9-10.9,5.85a15.91,15.91,0,0,1-7.06,0c-6.62-1.48-11.54-6.93-17.56-10.06-1.31-.68-3.45-2.5-4.92-2.53C118.5,112.9,119.15,116.49,118.91,119.32Z"/><path class="cls-16" d="M120.62,114.07a21,21,0,0,1,2.64,6.79l1.46-2.09a29,29,0,0,1,3.09,7.08,27.24,27.24,0,0,1,1.38-4.76l5,6.39.87-4.14a6.44,6.44,0,0,1,2.88,4.5,3.15,3.15,0,0,0,1.13-2.07,8.26,8.26,0,0,1,2.8,3.79L143.1,127l3,3.19,1.94-2.22,1.76,2.53,5-3.31a2.84,2.84,0,0,0,.72,1.78l5.12-6.12a15.62,15.62,0,0,0-1.52,6,23.66,23.66,0,0,0,3.59-6.4c.32.71,1.12,1,1.69,1.5,1.72-3.17.43-6.87.48-10.53-2.91-.68-5.93.55-8.51,2.06s-5.07,3.33-8,4c-4.71,1.08-9.49-1.05-13.85-3.13a17.59,17.59,0,0,1-4.3-2.58c-1.59-1.43-2.62-3.4-4.21-4.83s-4.2-2.18-5.81-.76a5.29,5.29,0,0,0-1.37,3.78c-.06,1.15-.47,4.14.66,4.76C119.66,116.4,120.79,114.35,120.62,114.07Z"/><path class="cls-11" d="M131.72,101.32s-.31-10.51,6.38-17.09c0,0,2.89,3.67,2.39,7.31l4.44-4.73,2.85,4.11,2.48-2.71,2.85,7.07,4.38-5.62,2.74,3.66,2.25-5.94a25.11,25.11,0,0,1,3.23,18.32l-2.88-1.2,1.35,2.79-3.17-.75.17,2.82-3.47-2.26,1,7.63-1.84-.77.81,3.77-2.12-.94-.54,4.08-2-3.44-2.18,2.74-2.42-2.45-4.08,2.55-1-2.91-3.29.42,2.44-3.89-2.44.8,1.65-4.86-2.6.93,2.39-6.41-5,1.28,1.47-3-3.65-.36,2-2Z"/><polygon class="cls-12" points="136.4 84.11 138.74 93.1 143.23 86.69 146.13 93.75 148.63 90.3 150.88 97.97 155.79 89.54 158.77 94.79 162.49 87.39 136.4 84.11"/><circle class="cls-26" cx="149.96" cy="102.68" r="0.91" transform="translate(33.24 241.99) rotate(-84.44)"/><circle class="cls-26" cx="153.68" cy="103.04" r="0.91" transform="translate(36.24 246.02) rotate(-84.44)"/><path class="cls-12" d="M149,104.34a3.15,3.15,0,0,0,5.25.51Z"/><path class="cls-26" d="M143.53,97.13a3.09,3.09,0,0,1,2.78,2.86,3.09,3.09,0,1,0-6.06-.59A3.09,3.09,0,0,1,143.53,97.13Z"/><path class="cls-26" d="M158.48,98.71a3.09,3.09,0,0,1,2.78,2.86,3.09,3.09,0,1,0-6.06-.59A3.09,3.09,0,0,1,158.48,98.71Z"/><path class="cls-8" d="M143.59,107.29c0,.18-.06.37-.08.56a6,6,0,1,0,12,1.16c0-.19,0-.38,0-.57a29.74,29.74,0,0,1-5.31-.06A36.46,36.46,0,0,1,143.59,107.29Z"/><path class="cls-12" d="M151.14,115.32A3.2,3.2,0,0,1,147,115l-.68-.09a3.22,3.22,0,0,0,5.51.48Z"/><path class="cls-8" d="M166.27,93.58l6.78,6.12s-4.36-8.24-9.4-12.57c0,0,6,2.21,7.48,5,0,0-1.29-6.47-11.61-9.54a11.37,11.37,0,0,1,9.3,1.49s-5.44-7.76-14.92-4.4c0,0,2-5.7,10.46-5.92,0,0-7.12-2.61-14.06,3.5,0,0,.47-6.3,6-7.24a15.83,15.83,0,0,0-11.68,3.29s-.79-4.06-3.28-4.16c0,0,1.21,2.77.24,3.56,0,0-3.76-5.38-6.58-5.21,0,0,6.18,6.21,2.64,10.73a9.49,9.49,0,0,0-11.15-6.69s8.73,2.77,6.78,9.22c0,0-.86-4.81-9.87-1.7,0,0,6.81-.22,6.95,2.89,0,0-4.44-2.94-10.2,4.76,0,0,4.45-3.26,7.86-1.89l-5.14,2.75-5.68,6.83,7.88-5.14s-6.43,5.42-7.26,7.85l4.49-2.22s-4.63,5.16-4.56,12a2.65,2.65,0,0,0,1.18-1.51s-.9,9.21-.13,11.94l2.54-7.87,2.88,6.77.62-1.86,2.65,6.16,2.06-4.52,4.22,5.13,1.18-3,2.94,6.19,1.1-2.25,2.64,3.21,2.43-2.27,1,1.43,1.66-1.9,1.71,3.71,4.05-3.74,1.13,2,3.57-4.82,1.28,2,3.24-6s3.37,4.75,2.58,8.37c0,0,3.89-5.08,3.15-14.15a14.44,14.44,0,0,1,1,5.11s1.08-5.06.48-6.45-1.71-4.14-1.71-4.14l5.13,2.26Zm-.54,12.12-2.88-1.2,1.35,2.79-3.17-.75.17,2.82-3.47-2.26,1,7.63-1.84-.77.81,3.77-2.12-.94-.54,4.08-2-3.44-2.18,2.74-2.42-2.45-4.08,2.55-1-2.91-3.29.42,2.44-3.89-2.44.8,1.65-4.86-2.6.93,2.39-6.41-5,1.28,1.47-3-3.65-.36,2-2-4.53,1s-.31-10.51,6.38-17.09c0,0,2.89,3.67,2.39,7.31l4.44-4.73,2.85,4.11,2.48-2.71,2.85,7.07,4.38-5.62,2.74,3.66,2.25-5.94A25.11,25.11,0,0,1,165.73,105.7Z"/><path class="cls-27" d="M251,136.77a1.63,1.63,0,0,1,.32,1.33,2.91,2.91,0,0,1-.64,1.27,8,8,0,0,1-2.12,1.72,14.2,14.2,0,0,1-2.44,1.11,9.67,9.67,0,0,1-2.61.58c.82-.34,1.59-.76,2.37-1.14s1.55-.79,2.29-1.22a11.6,11.6,0,0,0,2.07-1.46A2,2,0,0,0,251,136.77Z"/><path class="cls-13" d="M232.44,188.61a54.17,54.17,0,0,1-11.74,5.23,7.94,7.94,0,0,0,2.89-2.94s-14.14,8.41-18.19,10.31a13.26,13.26,0,0,0,2.69-3.55S180,208.49,176,209.78c12.42.62,37.5-8.56,38.94-9.86a16.61,16.61,0,0,1-4.54,4.16c11.67-5,22.05-15.48,22.05-15.48"/><path class="cls-16" d="M256.45,194.29c-8.13-1.93-11.83-5.73-11.83-5.73a4.44,4.44,0,0,0,3,3.41c2.6.8-10.34-3.75-10.34-3.75s13.17,7,13.64,7,5.53-.93,5.53-.93"/><path class="cls-20" d="M251,184c3.54,3.09,10.49,5,11.75,5.65s-7.58-.66-8.84-1.3S251,184,251,184"/><path class="cls-16" d="M248.65,164.48c-1.66-.16-2.46,1.89-.17,2.76s-5.94,4-7.2,2.11,1.13-5.84,3.42-5.44S248.65,164.48,248.65,164.48Z"/><path class="cls-20" d="M241,164s2.06-.16,3.32-.21a1.27,1.27,0,0,1,.45.07c1.25.17-2.89,5.52-1,8.69-1.89-2.54-3.63-2.54-1.82,1.26s-4.5-1.91-4.5-1.91l1.05-6.47Z"/><path class="cls-13" d="M210.5,175.8c-6.3,4.61-16.27,10.51-20.15,11.77,3.09-1.09,6.39-1.39,6.87-1.07-3.77-.9-18.86,9.21-18.16,17.58.34,4.08-14.76-12.32-12.58-12.23,6.12.24,29.62-8.36,31.35-9.45-1.89,1.88-7.15,1.93-7.15,1.93l18-8.94Z"/><path class="cls-11" d="M291.57,235.25c2.08,2.17,1.72,5.92-.35,8.1s-5.21,3-8.2,3.23-6,0-9,.6a27.62,27.62,0,0,0-9.9,4.6,15.41,15.41,0,0,1-4.69,2.49,7.13,7.13,0,0,1-7.23-2.54,3.48,3.48,0,0,1-.83-2.24c.09-1.56,1.64-2.55,3-3.29,8.7-4.65,17.54-9.35,27.16-11.49C281.56,234.72,287.85,231.37,291.57,235.25Z"/><path class="cls-12" d="M285.39,234.58a1.13,1.13,0,0,0,1,.31,3.78,3.78,0,0,0,1.42-.42,10.74,10.74,0,0,0,1.19-.81,8.48,8.48,0,0,0-3.87-.12,2.72,2.72,0,0,0,.12.66A1.11,1.11,0,0,0,285.39,234.58Z"/><polygon class="cls-13" points="288.96 233.66 288.96 233.66 288.96 233.66 288.96 233.66"/><polygon class="cls-13" points="285.09 233.54 285.09 233.54 285.09 233.54 285.09 233.54"/><path class="cls-11" d="M296.05,236.36c2.08,2.17,1.72,5.92-.35,8.1s-5.21,3-8.2,3.23-6.42,1.64-9.32,2.43c-3.82,1-9.23,2.92-12.71,4.11-1.68.57-.8.24-2.56.78-2.59.79-4.58,0-6.22-2.16a3.48,3.48,0,0,1-.83-2.24c.09-1.56,1.64-2.55,3-3.29,8.7-4.65,17.54-9.35,27.16-11.49C286,235.84,292.33,232.49,296.05,236.36Z"/><path class="cls-8" d="M245.24,225.25a5.09,5.09,0,0,0-.86,4.61c-3-8.1-6.52-21.75-7.43-30.36l-.94,3c-2.36-8.54-2.43-13.8-3.05-22.68l-1.9,2.44c-.28-4.88-.59-9.94-2.3-14.49l-.07-.2c.57-2.59,5.66.21,6.51-2.28.93-2.72,16.4-1.73,17.83,4.38-1.08-2.47,5.16,10,6.13,16.78-.9-1.51-1.93-4.39-2.79-4.15,4.83,6.5,8,30.18,6.66,36.08a17.59,17.59,0,0,0-1.73-6.05c0,3.29,0,27.33,15.59,21.61,2.42-1.13,5-2.63,5.81-5.3.36,2-.76,3.93-1.92,5.58a4.88,4.88,0,0,1,4-1.86,11.51,11.51,0,0,0-4.71,4.61,8.28,8.28,0,0,0,4-2.76,8,8,0,0,1-4.37,6.51,4.58,4.58,0,0,1,4.61,1.54,7.24,7.24,0,0,0-6.08,1.6,1.5,1.5,0,0,0,1.5-.08,4.75,4.75,0,0,1-1.47,2.91,10.72,10.72,0,0,1-2.69,1.79,39.17,39.17,0,0,1-5.91,2.44,5,5,0,0,0,2.71-.21,18,18,0,0,1-5.57,3.09l-2.85.87c-1.48.45-5.13.77-7.46,1.46C254.24,248.69,245.11,236.05,245.24,225.25Z"/><path class="cls-12" d="M290.73,234.52s-2.31-.05-6.77,2.8a13.52,13.52,0,0,1,6-3.24A5.4,5.4,0,0,1,290.73,234.52Z"/><path class="cls-15" d="M290.73,234.52s-2.31-.05-6.77,2.8a13.52,13.52,0,0,1,6-3.24A5.4,5.4,0,0,1,290.73,234.52Z"/><path class="cls-20" d="M226.52,183.38c-.55-4.88,2.15-14.49,2.94-17.09.87-2.84,18.26-4,20.13,2a9.26,9.26,0,0,0-4.74-4.12c5.6,5.38,7.31,12,8.71,18.68-1-1.42-3.33-3.23-4.25-2.88,5.56,6,12.62,25.89,11.44,32-.25-2.81-2.91-5.68-2.91-5.68,0,1.09,3.67,9,5,13.25a10.44,10.44,0,0,0,4.29,4.68,3.27,3.27,0,0,1-1.77-.55,9.51,9.51,0,0,0,4,5,4.43,4.43,0,0,1-2.91-.66c1.26,2.12,3.5,3.56,5.18,4.62-3.24,2.12-10.24,1.47-13.85,2.8a59.79,59.79,0,0,1-5.8,1.82,10.13,10.13,0,0,0-4.39,1.85c-.29-2.26-.47-4.54-.56-6.73a6.43,6.43,0,0,0-.57,5.47c-3.62-7.83-11.27-25.75-12.7-34.31-.29,1-.09,2.15-.37,3.19a122.3,122.3,0,0,1-6.23-25.89C226.59,181.72,227.16,182.49,226.52,183.38Z"/><path class="cls-13" d="M260.39,198.33c-5.4,3.06-9.68,0-8.68.41,3.69,2.71,6.68,1.88,8.82.27Z"/><path class="cls-16" d="M267.7,247.76l.23,0Z"/><path class="cls-20" d="M278.42,238a11.28,11.28,0,0,1-3.86-1.76l-.08-.07q.91-1.2,1.86-2.38a5.81,5.81,0,0,1-4.31.33v0a27.23,27.23,0,0,0-2.62-1.75c-2.08-1.21-4.62-1.38-7-1.93-1.05-.24-2.08-.55-3.16-.69a16.85,16.85,0,0,0-5.16.3,28.41,28.41,0,0,0-5.41,1.48,6.21,6.21,0,0,0-2.67,1.73c-.72.92-3.43-5.42-3.07-4.37,1.52,4.37,1,8.55,1.06,11,0,0,.74-3.52.75-3.5,1.76,2.32,3,14.58,2.88,16.07.31-.08.49-1,1-2.09.42,2,4.26,7.1,8.63,6,2.75-.72,4.46-1,7.23-1.83a13.6,13.6,0,0,1-3.5-.17c-.86-.19-1.83-.68-1.85-1.56-.07-4.19,6.35-4.75,8.62-5.06-1.4.15-5.35-.12-4.23-2.89,1.27-3.11,4.06-3.91,7.14-5v0C272.47,239.28,276.53,238.5,278.42,238Z"/><path class="cls-12" d="M290.21,234.57a14.22,14.22,0,0,0-4.39,1.65c.32.69,1.56,2.51,5.47,1.54,0,0,2.86-.43,2.61-2.82A7.75,7.75,0,0,0,290.21,234.57Z"/><path class="cls-13" d="M119.59,162a109.32,109.32,0,0,1-2.16-13.65c-.28-2.83-1.08,4.18-1.19,5.82-.69-5.64.24-15.51.77-18.42a41.47,41.47,0,0,1-1.48,5.72c-.65-6.59-.2-14,2.79-17.26-4.45,4.51-5.95,8.6-5.64,18.63a117.44,117.44,0,0,0,2.47,19.6l.81-4.16.75,4.82Z"/><path class="cls-20" d="M259.29,189.8c7.22,3,17.51,8.06,17.51,8.06l-9.67-.88s26.57,7,30.24,7c-6.58-.58-17.31-2-16.1-2.09s15.9,4.14,27.27,12c-9.8-4.34-8.27-5.3-14.89-6.28,3.06,2.14,2.7,2.59,2.7,2.59s-6.53-4.25-11.76-5.57-24-8.67-24-8.67Z"/><path class="cls-8" d="M198.78,167.21c-5.25.52-19.74,2.35-22.17,2.59s1.65.25,5.69-.15c-19.51,4.77-24.59,2.82-24.59,2.82,8.64.78,27-7.14,30.25-7.46-3.51,1.57-6.11,2.77-6.11,2.77s6.27-1.16,15.8-3.73"/><path class="cls-20" d="M155.3,111.09a13.16,13.16,0,0,1-4.37.07,17.23,17.23,0,0,1-4.14-1,17,17,0,0,0,4.18.52,12.45,12.45,0,0,0,4.06-.53h0a.5.5,0,1,1,.33.95Z"/><ellipse class="cls-22" cx="262.31" cy="139.59" rx="2.5" ry="1.25" transform="translate(75.08 370.31) rotate(-78.96)"/><path class="cls-27" d="M228.43,167.71a46,46,0,0,1-8.74,2.13,45.58,45.58,0,0,0,8.32-3Z"/><path class="cls-27" d="M228.86,163.67a29.63,29.63,0,0,1-3,.58c-1,.15-2,.27-3,.38-2,.22-4,.39-6,.52,2-.3,4-.63,6-1a47.08,47.08,0,0,0,5.81-1.42Z"/><path class="cls-27" d="M222.38,160.28a11.64,11.64,0,0,1-6.62,1.32,10.24,10.24,0,0,1,3.21-1.15A10.42,10.42,0,0,1,222.38,160.28Z"/><path class="cls-13" d="M166.48,191.84a39.25,39.25,0,0,1-18.29-4.64l3.93,4.56s-15.1-4.4-20.52-9.82a35.58,35.58,0,0,0,3.42,5.39s-9.92-4.26-15.44-25.38c-2.14-2.4-3.84-2.91-2.88,1.1s8.57,18.8,8.17,23a10.4,10.4,0,0,0-.55-7.34s7.7,19.62,14,23.22a37.81,37.81,0,0,0-2.91-6s13.66,15.25,30.7,15.25c15.33,0,18.46-3.65,23-9.08-2.33-.37-6.78,2.18-10.07,2.07S166.48,191.84,166.48,191.84Z"/><path class="cls-7" d="M213.88,234.49c-4.12,1.9-12.34,1.77-12.34,1.77l12.34-4.54Z"/><path class="cls-7" d="M213.88,251.19s3,16.71,2,20.54c2.33-3,1.27-11,1.27-11Z"/><line class="cls-28" x1="211.43" y1="87.89" x2="241.43" y2="87.89"/><line class="cls-28" x1="211.43" y1="94.89" x2="231.43" y2="94.89"/><g class="cls-29"><line class="cls-30" x1="210.43" y1="104.89" x2="216.43" y2="104.89"/><line class="cls-31" x1="221.57" y1="104.89" x2="249.85" y2="104.89"/><line class="cls-30" x1="252.43" y1="104.89" x2="258.43" y2="104.89"/></g><line class="cls-32" x1="210.43" y1="109.89" x2="242.43" y2="109.89"/><g class="cls-29"><line class="cls-30" x1="210.43" y1="114.89" x2="216.43" y2="114.89"/><line class="cls-33" x1="221.63" y1="114.89" x2="239.83" y2="114.89"/><line class="cls-30" x1="242.43" y1="114.89" x2="248.43" y2="114.89"/></g><line class="cls-32" x1="210.43" y1="119.89" x2="233.43" y2="119.89"/><rect class="cls-8" x="292.43" y="74.89" width="84" height="74" rx="5.37" ry="5.37"/><polygon class="cls-34" points="316.77 123.07 362.43 141.89 345.43 142.89 314.43 138.89 316.77 123.07"/><path class="cls-35" d="M296.43,124.12c5,7.77,8.72-1.8,16.85-1.8,10.11,0,19.53,19.92,28.72,19.92,8.51,0,8.42-4.06,15.72-9.53,6.05-4.54,9.71-.81,14.71,4.47v4.58a3.13,3.13,0,0,1-3.13,3.13H299.56a3.13,3.13,0,0,1-3.13-3.13Z"/><path class="cls-2" d="M372.43,109.67c-5-7.77-8.72,1.8-16.85,1.8-10.11,0-19.53-11.92-28.72-11.92-8.51,0-8.42,9.06-15.72,14.53-6.05,4.54-9.71.81-14.71-4.47V82a3.13,3.13,0,0,1,3.13-3.13h69.73A3.13,3.13,0,0,1,372.43,82Z"/><circle class="cls-34" cx="355.93" cy="94.39" r="10.5"/><circle class="cls-35" cx="355.93" cy="94.39" r="6.5"/><path class="cls-8" d="M301.43,146.89v6.62a1,1,0,0,0,1.68.7l7.32-7.32Z"/><path class="cls-8" d="M215.59,132.55l-1.17-1.17a2.73,2.73,0,0,0-3.86,0h0a2.73,2.73,0,0,0,0,3.86l5,5,5-5a2.73,2.73,0,0,0,0-3.86h0a2.73,2.73,0,0,0-3.86,0Z"/></g></g></g></svg>