<svg xmlns="http://www.w3.org/2000/svg" xmlns:xlink="http://www.w3.org/1999/xlink" width="400" height="309.95" viewBox="0 0 400 309.95"><defs><style>.cls-1,.cls-27,.cls-28,.cls-30,.cls-31,.cls-32,.cls-33,.cls-34,.cls-36,.cls-37{fill:none;}.cls-2{isolation:isolate;}.cls-3{fill:#eef;}.cls-4{fill:#3942bb;opacity:0.2;}.cls-5,.cls-9{fill:#525ecc;}.cls-27,.cls-5{stroke:#525ecc;}.cls-11,.cls-30,.cls-31,.cls-32,.cls-33,.cls-34,.cls-5,.cls-8{stroke-miterlimit:10;}.cls-11,.cls-27,.cls-28,.cls-5,.cls-8{stroke-width:4px;}.cls-10,.cls-6,.cls-8{fill:#1d1099;}.cls-6{opacity:0.3;}.cls-7{fill:#6e7ae5;}.cls-28,.cls-31,.cls-8{stroke:#6e7ae5;}.cls-11,.cls-32,.cls-37{stroke:#6ccce6;}.cls-11{fill:url(#linear-gradient);}.cls-12{fill:#333d61;}.cls-12,.cls-19,.cls-29,.cls-35{fill-rule:evenodd;}.cls-13{fill:#addcf1;}.cls-14,.cls-35{fill:#fff;}.cls-15{fill:#c5e9fa;}.cls-16,.cls-29{fill:#9dd9ef;}.cls-17{fill:#e8f5f8;}.cls-18{clip-path:url(#clip-path);}.cls-19{fill:#2f3b4f;}.cls-20{fill:#1b1a18;}.cls-21{fill:#00b4d2;}.cls-22,.cls-26{fill:#049cbe;}.cls-23{fill:#465578;}.cls-24{fill:#f6fbfd;}.cls-25{fill:#6ccce6;}.cls-26{opacity:0.5;mix-blend-mode:multiply;}.cls-27,.cls-28,.cls-31,.cls-36,.cls-37{stroke-linecap:round;}.cls-27,.cls-28,.cls-36,.cls-37{stroke-linejoin:round;}.cls-30{stroke:#fff;stroke-width:3px;}.cls-31,.cls-36,.cls-37{stroke-width:2px;}.cls-33{stroke:#1d1099;}.cls-34,.cls-36{stroke:#ffa733;}</style><linearGradient id="linear-gradient" x1="239.71" y1="283.94" x2="334.42" y2="26.05" gradientUnits="userSpaceOnUse"><stop offset="0" stop-color="#6ccce6" stop-opacity="0.4"/><stop offset="1" stop-color="#6ccce6" stop-opacity="0.1"/></linearGradient><clipPath id="clip-path"><path class="cls-1" d="M106.72,185.29c-.27-.77,7.3,6.31,7,5.54-3,4.93-6.51,9.86-11.66,11.64-5.73,2-26-7.17-31.26-4.17.07,1.71.09,2.86.15,4.56A26.93,26.93,0,0,1,67.73,193a5,5,0,0,0-.34,3.13A34.77,34.77,0,0,1,63.68,183a24.35,24.35,0,0,0-.46,5.52,44.67,44.67,0,0,1-6.51-18.82L56.54,174c-5.11-7.15-2.33-17.23-1.85-25.89l-1.36,3.45A31.1,31.1,0,0,1,53.63,133l-1.9,1.8c-2-5.24-1-11.44,2.43-15a3.31,3.31,0,0,0-2.69,2A31,31,0,0,1,56.12,108a2.88,2.88,0,0,0-1.84,1c.88-4.79,9.37-4.39,13.5-5.82a3.87,3.87,0,0,0-4-.73,18.47,18.47,0,0,1,10.95-3,5.53,5.53,0,0,0-4.31-1.86c4.47-2.58,4.78-7.18,9.82-5l-2.8-2.27A20.85,20.85,0,0,1,86.29,93a47.16,47.16,0,0,1,5.1,4c3.38,2.82,6.62,4.29,10.06,7a22.82,22.82,0,0,0,6.1,3.47,3.41,3.41,0,0,1-2.33.13,20.07,20.07,0,0,1,4.12,5.41,3.9,3.9,0,0,0-2-1.5,36.22,36.22,0,0,1,4,10,14.67,14.67,0,0,0-2.21-3,32.65,32.65,0,0,1,2.41,11.9l-1.93-3.59a44.54,44.54,0,0,1-1.1,10.31l-.3-1.19a27.94,27.94,0,0,0-1.11,5.36c-.19,1.71-1,4.12-1.3,3.15a14,14,0,0,0-2,8.68l-.91-2.2a30.18,30.18,0,0,0,3.67,12.66,3.85,3.85,0,0,1-1.81-1.85,23.7,23.7,0,0,0,6.13,9.87l-2-.39"/></clipPath></defs><title>13-large-businesses</title><g class="cls-2"><g id="Layer_2" data-name="Layer 2"><g id="Layer_8" data-name="Layer 8"><path class="cls-3" d="M46,261.26c-72.35-62.51-56.43-157,27.49-184.48,83-27.13,105.94,24.16,170.42-39.49C381.36-98.4,475.42,172.45,318,271.94,230,327.57,103,310.57,46,261.26Z"/><path class="cls-4" d="M163.12,306.76c0,1.76-44.88,3.19-75.56,3.19S52,308.53,52,306.76s4.88-3.19,35.56-3.19S163.12,305,163.12,306.76Z"/><ellipse class="cls-4" cx="200.48" cy="304.37" rx="94.52" ry="5.42"/><rect class="cls-5" x="163" y="19.95" width="124" height="265" rx="8.98" ry="8.98"/><path class="cls-6" d="M289,110h-5.23a5.77,5.77,0,0,0-5.77,5.77v63.47a5.77,5.77,0,0,0,5.77,5.77H289Z"/><path class="cls-7" d="M120.52,302.76l4-19.78h11l-7.75,21.78a3.77,3.77,0,0,1-3.55,2.5h0A3.77,3.77,0,0,1,120.52,302.76Z"/><path class="cls-7" d="M221.05,302.76l-4-19.78h-11l7.75,21.78a3.77,3.77,0,0,0,3.55,2.5h0A3.77,3.77,0,0,0,221.05,302.76Z"/><path class="cls-7" d="M280,299.52,277.06,285h-8.12l5.7,16a2.77,2.77,0,0,0,2.61,1.84h0A2.77,2.77,0,0,0,280,299.52Z"/><rect class="cls-8" x="113" y="19.95" width="114" height="265" rx="8.98" ry="8.98"/><path class="cls-9" d="M127.75,30A4.75,4.75,0,0,0,123,34.7V60.2A4.75,4.75,0,0,0,127.75,65h29.62a2.27,2.27,0,0,0,1.61-.67l1.67-1.67a2.27,2.27,0,0,1,1.61-.67h22.3a2.27,2.27,0,0,1,1.61.67l1.67,1.67a2.27,2.27,0,0,0,1.61.67H225V30Z"/><path class="cls-9" d="M127.75,70A4.75,4.75,0,0,0,123,74.7v25.5a4.75,4.75,0,0,0,4.75,4.75h29.62a2.27,2.27,0,0,0,1.61-.67l1.67-1.67a2.27,2.27,0,0,1,1.61-.67h22.3a2.27,2.27,0,0,1,1.61.67l1.67,1.67a2.27,2.27,0,0,0,1.61.67H225V70Z"/><path class="cls-9" d="M127.75,110A4.75,4.75,0,0,0,123,114.7v25.5a4.75,4.75,0,0,0,4.75,4.75h29.62a2.27,2.27,0,0,0,1.61-.67l1.67-1.67a2.27,2.27,0,0,1,1.61-.67h22.3a2.27,2.27,0,0,1,1.61.67l1.67,1.67a2.27,2.27,0,0,0,1.61.67H225V110Z"/><circle class="cls-10" cx="198.5" cy="120.45" r="2.5"/><path class="cls-9" d="M127.75,150A4.75,4.75,0,0,0,123,154.7v25.5a4.75,4.75,0,0,0,4.75,4.75h29.62a2.27,2.27,0,0,0,1.61-.67l1.67-1.67a2.27,2.27,0,0,1,1.61-.67h22.3a2.27,2.27,0,0,1,1.61.67l1.67,1.67a2.27,2.27,0,0,0,1.61.67H225V150Z"/><path class="cls-9" d="M127.75,190A4.75,4.75,0,0,0,123,194.7v25.5a4.75,4.75,0,0,0,4.75,4.75h29.62a2.27,2.27,0,0,0,1.61-.67l1.67-1.67a2.27,2.27,0,0,1,1.61-.67h22.3a2.27,2.27,0,0,1,1.61.67l1.67,1.67a2.27,2.27,0,0,0,1.61.67H225V190Z"/><path class="cls-9" d="M127.75,230A4.75,4.75,0,0,0,123,234.7v25.5a4.75,4.75,0,0,0,4.75,4.75h29.62a2.27,2.27,0,0,0,1.61-.67l1.67-1.67a2.27,2.27,0,0,1,1.61-.67h22.3a2.27,2.27,0,0,1,1.61.67l1.67,1.67a2.27,2.27,0,0,0,1.61.67H225V230Z"/><circle class="cls-10" cx="134.5" cy="122.45" r="1.5"/><circle class="cls-10" cx="134.5" cy="132.45" r="1.5"/><circle class="cls-10" cx="146.5" cy="122.45" r="1.5"/><circle class="cls-10" cx="146.5" cy="132.45" r="1.5"/><circle class="cls-10" cx="140.5" cy="127.45" r="1.5"/><circle class="cls-10" cx="158.5" cy="122.45" r="1.5"/><circle class="cls-10" cx="158.5" cy="132.45" r="1.5"/><circle class="cls-10" cx="152.5" cy="127.45" r="1.5"/><path class="cls-10" d="M158.07,201.14a16.35,16.35,0,0,1,4.48,10.6c-.71-.24-1.88-4.24-1.88-4.24s3.53,12.25,2.36,16c-1.18.47-1.65-4.24-1.65-4.24s0,28-2.59,31.34c-.71,0-.94-5.18-.94-5.18s-1.88,7.78.47,9.9c-.24.71-3.06-.47-3.06-.47s2.59,4.95,4.48,5.18c-.47.71-3.77-.94-3.77-.94a32.84,32.84,0,0,0,5.42,6.36c3.08,2.67,1.18,12.49,1.18,12.49l-24-6.6,6.54-78.79S155.24,198.46,158.07,201.14Z"/><rect class="cls-11" x="231" y="19.95" width="114" height="265" rx="8.98" ry="8.98"/><path class="cls-12" d="M159.52,135.18c3.49-2.27,8-4.73,10.81-4.68,9.79.17,17.64-8.34,20.3-8.2.6,0,.09-2.09-2.06-2.1-3.08,0-7.13,4.16-7.87,2-.14-3.06,4.24-3.2,10-3.2-7.85-2.82-13.49-4.8-19-5.52-2.11-.27-9.4,5-10,6.79s-7.88,3.87-7.88,3.87Z"/><path class="cls-13" d="M126.23,162.07c.49-1.25-.11-2.65-.74-3.83-.46-.86-1-1.71-1.47-2.54,2.38.08,5-.15,6.6-1.32a.16.16,0,0,0,0-.26c-2.2-1.17-3.07-2.33-3.25-3a.15.15,0,0,1,.19-.19,12.46,12.46,0,0,1,2.5,1.47.15.15,0,0,0,.22-.21c-2.72-4.46-6-9.72-10.06-12.93a6.78,6.78,0,0,1,4.7,1.24,42.52,42.52,0,0,0-6.19-5.6,7,7,0,0,1,2.81,1,14.53,14.53,0,0,1-4.95-8.55l2.8,2.58c-2.69-2.48-6.28-16.39-12.4-14.56a14.61,14.61,0,0,0-8.5,10.84,16.47,16.47,0,0,1,1.61-2.65l.06,0A7.35,7.35,0,0,0,99,127.79q.47-.67,1-1.31c.08,1.22,2.49,7.19-.3,10.43a1.61,1.61,0,0,0,1.32-.74,6.37,6.37,0,0,0,.94-1.88l.34.89v.06c-.13,1.21-1.17-1.23-1,.6.17,2.37,4.21,10.85,5,13.08a13.38,13.38,0,0,1-.4-5.55,63.57,63.57,0,0,0,8.18,18.07.15.15,0,0,0,.28-.13,8.39,8.39,0,0,1-.18-.83.16.16,0,0,1,.29-.11,3.72,3.72,0,0,1,.42,2.79.15.15,0,0,0,.23.17,7.34,7.34,0,0,1,4.77-.78,19.41,19.41,0,0,0,5.37.3,1.48,1.48,0,0,0,.56-.19A1.25,1.25,0,0,0,126.23,162.07Z"/><path class="cls-14" d="M128.69,144.81a14.42,14.42,0,0,0,3-4,5,5,0,0,0,.48-1.64,1.64,1.64,0,0,0-.05-.64c0-.2,0-.06-.08-.22a1.08,1.08,0,0,0-.12-.19.68.68,0,0,1,0-.91.15.15,0,0,0,0-.22,39.06,39.06,0,0,1-8.61-9.11,3.46,3.46,0,0,0,3.21,1.16,30.73,30.73,0,0,1-7.23-9.52,54.59,54.59,0,0,0-3.07-6.23c-2.32-3.53-8.43-6.33-12.8-2.21,5.27,35.54-3.8-.68,12.57,27.52q3,5.21,6.19,10.33a.16.16,0,0,0,.18.07A17.68,17.68,0,0,0,128.69,144.81Z"/><path class="cls-14" d="M162.36,134.34c-.78,1-1.81,2-3,1.82a14.81,14.81,0,0,0,6.65-8.08,5.39,5.39,0,0,1-3.49.38,3.05,3.05,0,0,0,.41-.15l3.15-.91a15.2,15.2,0,0,1-4.36-1,14.61,14.61,0,0,1,4.09-1.95,35.91,35.91,0,0,0-4.78-.88,2.78,2.78,0,0,0,1.83-1.61,3,3,0,0,1-2.09-.15c1-.4,2.56-.67,3.49-.07-1-2.58-3.46-1.25-4.24-.76a4.2,4.2,0,0,0,1.88-3.27,21.35,21.35,0,0,1-10,6.69,4.63,4.63,0,0,1,2.51-2.38c-5.36,1.66-10.87,3.4-15.21,6.95l1.39-2.3a13.24,13.24,0,0,0-6.76,5.68l-.1-3.5a6.32,6.32,0,0,1-5.06,6.15.15.15,0,0,1-.09-.29,7.79,7.79,0,0,0,1.53-1,.15.15,0,0,0-.14-.27c-1.6.38-3.73.21-5,.91s-2.89,4-3.77,5.42a.15.15,0,0,0,.07.22l1.27.52a.15.15,0,0,1,0,.28c-1.79,1-3.53,2.13-5.22,3.33-1.9,1.35-6.72,5.17-4,7.69a35.75,35.75,0,0,0,3.39,2.39,36.83,36.83,0,0,1,4.51,3.34.15.15,0,0,0,.25-.17,4.52,4.52,0,0,0-.58-1,.15.15,0,0,1,.19-.23,7.2,7.2,0,0,1,1,.69.16.16,0,0,0,.19,0,10.88,10.88,0,0,1,1.71-1.13.15.15,0,0,1,.18.24h0a.16.16,0,0,0,.11.27,14.55,14.55,0,0,0,8.64-3.37,4.69,4.69,0,0,0-2.09.12,45.28,45.28,0,0,1,12-2.07,8.48,8.48,0,0,0-3-.59,19.54,19.54,0,0,0,13.4-6.1,6.63,6.63,0,0,1-2.84,1A34,34,0,0,0,162.36,134.34Z"/><path class="cls-15" d="M166,128.08l-.07.21Z"/><path class="cls-15" d="M166,128.08a6,6,0,0,1-3.58.38c.6-.19,3.61-1,3.65-1.05a15.65,15.65,0,0,1-4.32-.94,14.39,14.39,0,0,1,4.05-2A5.53,5.53,0,0,0,162,125c-2.21.93-2.94,4-5.23,4.61a3.62,3.62,0,0,0,2.75-1.25,3.66,3.66,0,0,1-1.24,2.2,6,6,0,0,1-1.68,1.06,5.94,5.94,0,0,1-1.48.12l.09.07q-1.05-.08-2.1-.25a8.33,8.33,0,0,0,4.22,1,18,18,0,0,1-11.79,1.3,9.74,9.74,0,0,0,6.56,1.57,18.44,18.44,0,0,1-14.4,2.82,27.35,27.35,0,0,0,4.5,2.55c-.29.05-7.59,8.61-24.86,3.46a.15.15,0,0,0-.14,0c-2,1.5-7.08,7.88-4.49,10.33a35.75,35.75,0,0,0,3.39,2.39,36.83,36.83,0,0,1,4.51,3.34.15.15,0,0,0,.25-.17,4.52,4.52,0,0,0-.58-1,.15.15,0,0,1,.19-.23,3.9,3.9,0,0,1,.63.43,1.19,1.19,0,0,0,0,1.14c.61.94,3.78.12,4.64,0A33.51,33.51,0,0,0,136.3,157l-4.29.62a61.34,61.34,0,0,0,24.05-13.06l-4.18,1.49a19.67,19.67,0,0,0,7.44-7.18c.43-.68.82-1.37,1.2-2.07q1-1.2,1.85-2.49a7.86,7.86,0,0,1-1.22,1.24q.25-.52.49-1.05a14.84,14.84,0,0,0,4.26-6.2C165.86,128.41,166.09,127.9,166,128.08Z"/><path class="cls-15" d="M125.08,156.7c.49-1.25-.11-2.65-.74-3.83-.46-.86-1-1.71-1.47-2.54,2.38.08,5-.15,6.6-1.32a.16.16,0,0,0,0-.26c-2.2-1.17-3.07-2.33-3.25-3a.15.15,0,0,1,.19-.19,12.46,12.46,0,0,1,2.5,1.47.15.15,0,0,0,.22-.21c-2.72-4.46-6-9.72-10.06-12.93a6.78,6.78,0,0,1,4.7,1.24,42.52,42.52,0,0,0-6.19-5.6,7,7,0,0,1,2.81,1,14.53,14.53,0,0,1-4.95-8.55l2.8,2.58c-2.69-2.48-6.28-16.39-12.4-14.56a14.61,14.61,0,0,0-8.5,10.84,16.47,16.47,0,0,1,1.61-2.65l.06,0a7.35,7.35,0,0,0-1.14,4.19q.47-.67,1-1.31c.08,1.22,2.49,7.19-.3,10.43a1.61,1.61,0,0,0,1.32-.74,6.37,6.37,0,0,0,.94-1.88l.34.89v.06a46.61,46.61,0,0,0,.12,6c.17,2.37,3.05,5.48,3.87,7.71a13.38,13.38,0,0,1-.4-5.55,63.57,63.57,0,0,0,8.18,18.07.15.15,0,0,0,.28-.13,8.39,8.39,0,0,1-.18-.83.16.16,0,0,1,.29-.11,3.72,3.72,0,0,1,.42,2.79.15.15,0,0,0,.23.17,7.34,7.34,0,0,1,4.77-.78,19.41,19.41,0,0,0,5.37.3,1.48,1.48,0,0,0,.56-.19A1.25,1.25,0,0,0,125.08,156.7Z"/><path class="cls-14" d="M103.73,121.36q.33,1.37.77,2.72c-.12-1.95,1.38-6.66,1.69-7.05a10.42,10.42,0,0,0-.15,3.49c-.14-1.1.85-3.09,1.29-4.09.19-.43,4-6.61,8.4-3.61-1.82-5-12.09-8-12.27-7.76-1.66,2.26-5.32,4.46-6.18,6.56,0,0,.17,5.73-1.33,9.57a13.73,13.73,0,0,0,1.77-3c.26.78-1,7.77-.51,8.59.21-1.56,2.09-3.11,2.95-4.44a6.39,6.39,0,0,1,2.08,3.67A30.75,30.75,0,0,1,103.73,121.36Z"/><path class="cls-14" d="M109.89,119.91a9.63,9.63,0,0,1,.73-4.51,2.81,2.81,0,0,1-.08,3.42,9.27,9.27,0,0,0,2.37-2.21,3.81,3.81,0,0,0,.66-3.09c-.22-.79-1.19-2-2.15-1.85-.76.13-1.23,1.57-1.47,2.22A8.94,8.94,0,0,0,109.89,119.91Z"/><path class="cls-14" d="M114.56,123a9.43,9.43,0,0,1-2.24-7.91c.73.66,1.47,1.32,2.2,2,.46.42.84.77.79,1.42a16,16,0,0,1-.48,1.88C114.74,120.79,114.25,122.65,114.56,123Z"/><path class="cls-16" d="M98.17,103.21a22.82,22.82,0,0,0,6.36,3,3.41,3.41,0,0,1-2.31.32,20.07,20.07,0,0,1,4.54,5.06,3.9,3.9,0,0,0-2.16-1.34,36.22,36.22,0,0,1,4.74,9.63A14.67,14.67,0,0,0,106.9,117a32.65,32.65,0,0,1,3.36,11.67L108,125.27a44.54,44.54,0,0,1-.27,10.37l-.4-1.16a26.33,26.33,0,0,0-.68,5.43c-1.34,2.55-2.84,9-2.3,12.05l-1.09-2.12A30.18,30.18,0,0,0,108,162.17a3.85,3.85,0,0,1-1.95-1.7c1.5,3.66,4.87,12.78,6.9,16.15A10.59,10.59,0,0,1,110,174c.71,1.21,2.86,8.48,3.26,13.37-.78-1-1.56-1.62-1.52-1.14.34,4.43.59,8.77.79,10.56-.34-.75-3.29,1.12-3.62.38-2.57,5.16-1.16,1.12-6.15,3.31-5.55,2.44-22.54-4.34-27.58-.93.2,1.69-12.77,2.84-12.56,4.53a26.93,26.93,0,0,1-4-9.59c-.37,1-1.53,4.7-1.22,5.76.13,2.35-.54,5.35.66,8.51-10.22-16.11-3.21-39.58-4.44-46.12.06,1.43.12,12.44.18,13.87-5.66-6.72,1.53-17,1.32-25.66L54,154.42a31.1,31.1,0,0,1-1.2-18.59l-1.75,2c-2.39-5.06-1.89-11.33,1.21-15.17a3.31,3.31,0,0,0-2.52,2.23,31,31,0,0,1,3.54-14.1,2.88,2.88,0,0,0-1.75,1.17c.49-4.84,9-5.13,13-6.88a3.87,3.87,0,0,0-4-.41,18.47,18.47,0,0,1,10.67-3.86,5.53,5.53,0,0,0-4.44-1.51c4.25-2.93,4.19-7.54,9.39-5.81l-3-2a20.85,20.85,0,0,1,9,2A47.16,47.16,0,0,1,87.57,97C91.17,99.57,94.52,100.78,98.17,103.21Z"/><path class="cls-17" d="M97.68,111.32a18.6,18.6,0,0,0,5.41,2,3.41,3.41,0,0,1-2,.36,13.92,13.92,0,0,1,3.73,3.77,3,3,0,0,0-1.82-1,23.92,23.92,0,0,1,3.68,7.36,10.11,10.11,0,0,0-2-2.11,21.8,21.8,0,0,1,2.38,9l-1.77-2.59a32.33,32.33,0,0,1-.72,8.18l-.29-.9a28.36,28.36,0,0,0-1,9.09l-.91-2.17a10.72,10.72,0,0,0-1.51,7l-.85-1.62a20,20,0,0,0,3.5,9.5,2.8,2.8,0,0,1-1.62-1.25,16.07,16.07,0,0,0,5.58,7l-1.79-.08a22.52,22.52,0,0,0,4.1,5,6.06,6.06,0,0,0-5.6,6.21l-.77-1.72c-2.48,4.18-9.95-6.36-14.4-4.4-5,2.19-2.65,13-10.16,9.7.1,1.33-5.31-4.33-5.21-3-1.56-2.18-8-7.77-8.46-10.41a3.64,3.64,0,0,0-.23,2.48c-1.91-2.94,3.08,14.51,2.67,11a17.52,17.52,0,0,0-.28,4.37,29.56,29.56,0,0,1-6.12-14l0,3.37c-4.62-5-3.5-13.91-3.28-20.74l-1.11,2.85a22,22,0,0,1-.17-14.59L55,140.79a11.17,11.17,0,0,1,1.77-12,3.27,3.27,0,0,0-2.31,1.87,24.79,24.79,0,0,1,3.75-11.28,2.94,2.94,0,0,0-1.58,1,12.07,12.07,0,0,1,6.91-8.84,3.6,3.6,0,0,0-3.48-.13,19.05,19.05,0,0,1,9.49-3.54,4.73,4.73,0,0,0-3.8-1,16.9,16.9,0,0,1,13.2-2.21l-2.5-1.46a18.69,18.69,0,0,1,7.76,1.15,35.87,35.87,0,0,1,4.55,2.6C91.75,108.78,94.62,109.58,97.68,111.32Z"/><g class="cls-18"><path class="cls-13" d="M50.41,168.68a5.12,5.12,0,0,0,1.15-3.54c0-.23-.3-.29-.37-.08s-.21.72-.29,1.09-.35.18-.37-.06a95.23,95.23,0,0,1,1.63-26.78,17.93,17.93,0,0,0-2.76,6.7c.41-3.17-.89-8.83.29-11.7a61.24,61.24,0,0,1,3.3-7l0-.06q.07-.64.15-1.28a7,7,0,0,1-2.09,1.5,1.77,1.77,0,0,1-1.83-.09c4.85-1.73,2.32-10.31,2.93-11.78-.61.25-1.22.51-1.81.8a8.67,8.67,0,0,1,3.62-4l0-.1a17.83,17.83,0,0,0-3.25,1.91c5.48-7.4,12.6-7.72,14.25-7.23,7-1.61,7.66,5.41,8.11,11.15a65.54,65.54,0,0,1-.09,8.38C72.8,132,74.3,139,76,144.18a5,5,0,0,1-2.77-3.64c.46,5.06,1.19,5.3,2.9,10.1,1.49,0-4,3-2.45,3,.2,0-3.48,1.23,7.3-2.15a10.34,10.34,0,0,1-2.11.77.19.19,0,0,0,0,.37,7.7,7.7,0,0,0,7.79-5.79L85.76,151a16.14,16.14,0,0,1,9.66-4.74L93.1,148.6c6.18-2.92,13.21-3.37,20-3.76a5.65,5.65,0,0,0-3.67,2.08,26,26,0,0,0,13.75-5,5.12,5.12,0,0,1-3.18,3.31c1.07-.36,8.12,3.75,8.57,7.1-.93-1-2.81-1.1-4.15-.94a3.6,3.6,0,0,0,2.43.79,3.39,3.39,0,0,1-2.64,1.37,43.77,43.77,0,0,1,5.4,2.45q-.67,0-1.33.11l-.23,0h0a17.64,17.64,0,0,0-3.79,1c.88.6.56-3.37,1.52-2.92.69.31,1.3.54,1.67.67l.39.13c-.06.08-2.67.11-4,.15a3.72,3.72,0,0,1-.52.05,6.5,6.5,0,0,0,1.78.59,11.61,11.61,0,0,0,2.46,0c.18-.17-.23.36-.17.26l-.15.22-.17.25-.38.51-.2.25-.25.31-.21.25-.35.4-.27.29-.29.3-.24.23-.3.28-.25.22-.46.39-.25.2-.32.25-.26.19-.52.37-.24.16-.36.23-.27.17-.39.23-.28.16-.45.24-.89,1.1.23-.11h0l.22-.12h0l.22-.12h0l.2-.12,0,0,.19-.12.05,0,.17-.12.08-.06.13-.09.22-.16-.84.74-.28.24-.59.49-.32.26-.66.51-.23.17c-.65.72-1.32,1.43-2,2.1a24,24,0,0,1-10.9,6.32l5.38-.54c-9.94,5.19-19.49,10-30.7,10.33l5.26.52a58.79,58.79,0,0,1-14.51,1.42c-1.07,0-6.73-.54-3.35-.39,1.24.15-1.52-.62-1.75-.81a.19.19,0,0,0-.29.22c.18.45-3.22-5-2.67-1.62-1.7-1-2.49-7.2-2.43-4.92a7.47,7.47,0,0,1-.59-1.68l-.14.14A1.35,1.35,0,0,1,59,176a1.7,1.7,0,0,1-.71-.19c-2.07-.92-3.76-2.7-5.57-4.21-1.65-1.37-.21-2.64-2.16-2.59A.22.22,0,0,1,50.41,168.68Z"/></g><path class="cls-14" d="M71.78,160.71a15.39,15.39,0,0,0,5.52-2.47,5.87,5.87,0,0,0,1.46-1.55,2.2,2.2,0,0,0,.31-.78.62.62,0,0,0,0-.31,1.65,1.65,0,0,0,0-.31.87.87,0,0,1,.55-1,.2.2,0,0,0,.1-.27,61,61,0,0,1-4-16.72,5,5,0,0,0,2.77,3.64,47.69,47.69,0,0,1-2.27-16.2,82.46,82.46,0,0,0,.29-9.4c-.45-5.75-5.38-13.37-12.42-11.76-6.49,19.74-2.92,21.46-2.34,40.86q.24,8.19.69,16.4a.22.22,0,0,0,.16.21A19,19,0,0,0,71.78,160.71Z"/><path class="cls-13" d="M63.49,89.69l1.56-3.94A115.39,115.39,0,0,1,75,93.66c2.82,2.64,5.71,6.6,9.67,7.28a2.44,2.44,0,0,0,2.59.15c.48,1.13,2.13,1.65,2.85,2.65,2.21,2.44,17.33,2.57,17.33,2.57l-1.47,4.09L104.26,109l-.18,6.72-5.17-3.73-2.47,4.38-2.69-5.08-3,3.75-1.46-5.83-1.76,2.4-4.58-4.77L80.41,112,75.3,101.49l-4.16,3.65-.25-7-4.51,5.22,1.34-11.7S62.21,93,63.49,89.69Z"/><path class="cls-13" d="M116.54,147.74s7.89-4,8.09-5c0,0,.82,1.69-1.24,4.2S116.54,147.74,116.54,147.74Z"/><path class="cls-12" d="M119.87,161.53l-7.44-9.29s4.94-3.33,6.83-5.66,3.62-9.16,5.41-10.55c1.17-.9,4.27-4.63,4.4-7.11.12-2.29.65-3.33,1.33-2.95,2.54,1.46,1.91,10.42-.83,11.53,2.65-.49,5.92-2.28,8.58-3.92,2-1.24,4,3.41,1.84,4.89-1.2.83-1.83.42-1.78.77s1.73-.39,2.24-.78c.71-.55,3.41,3.81-.53,5.76,1.67-1.24,3.79,1.53,1.61,3.87-2.42,2.61-3,2.89-12.39,7-2.86,1.18-9.27,6.48-9.27,6.48"/><path class="cls-19" d="M129.59,137.92a20.58,20.58,0,0,1-3.15.43,27.9,27.9,0,0,0,2.82-1c.86-.37,1.27-2.14,1.27-2.14l-.24,1.48a14,14,0,0,1,.66-1.8c0,.28,0,2.12.15,2.06s2.27-.64,2.27-.64A23.16,23.16,0,0,1,129.59,137.92Z"/><path class="cls-14" d="M118.18,163.19c-1.21.9-2.73,1.84-4.11,1.26a18.06,18.06,0,0,0,10.23-7.61,6.57,6.57,0,0,1-4.24-.57,3.72,3.72,0,0,0,.53-.05l4-.15a18.53,18.53,0,0,1-4.88-2.4,17.8,17.8,0,0,1,5.41-1.11,43.77,43.77,0,0,0-5.4-2.45,3.39,3.39,0,0,0,2.64-1.37,3.6,3.6,0,0,1-2.43-.79c1.34-.17,3.22,0,4.15.94-.46-3.35-3.73-2.5-4.8-2.14,1.5-.52,1.23-1.82,1.68-3.34-4,2.93-7.32,4.72-12.25,5a5.65,5.65,0,0,1,3.67-2.08c-6.83.4-13.85.84-20,3.76l2.31-2.31A16.14,16.14,0,0,0,85,152.54l.91-4.17a7.7,7.7,0,0,1-7.79,5.79.19.19,0,0,1,0-.37A9.5,9.5,0,0,0,80.2,153a.19.19,0,0,0-.08-.36c-2,0-4.47-.84-6.13-.37s-4.6,3.93-6,5.31a.19.19,0,0,0,0,.29l1.35,1a.19.19,0,0,1-.06.33c-2.41.69-4.8,1.49-7.15,2.41-2.65,1-5.37,2.21-6.61,8.06a36.9,36.9,0,0,0,2.88,3.68,44.89,44.89,0,0,1,4.36,5.27.19.19,0,0,0,.35-.12,5.51,5.51,0,0,0-.4-1.37.19.19,0,0,1,.3-.22,8.78,8.78,0,0,1,.94,1.1.19.19,0,0,0,.23.05,13.26,13.26,0,0,1,2.35-.84.19.19,0,0,1,.14.34h0a.19.19,0,0,0,.05.35,17.74,17.74,0,0,0,11.21-1.45,5.72,5.72,0,0,0-2.51-.47,55.19,55.19,0,0,1,14.82,1.07,10.34,10.34,0,0,0-3.4-1.59,23.82,23.82,0,0,0,17.65-3.3,8.08,8.08,0,0,1-3.65.33A41.44,41.44,0,0,0,118.18,163.19Z"/><path class="cls-15" d="M128,156.84l-.15.23Z"/><path class="cls-15" d="M50.73,172.86c1.59-1,2.12-3,2.41-4.8.22-1.33.38-2.66.52-4,2.57,2.05,5.66,4,8.41,4a.21.21,0,0,0,.2-.3c-1.45-3.1-1.43-5.09-1.08-5.95.06-.16-.48.36-.38.49.62.86,1.94,2.11,2.29,3.14a.22.22,0,0,0,.42,0c.75-7.13,1.56-15.61-.22-22.47a9.28,9.28,0,0,1,4.15,5.25,57.48,57.48,0,0,0-2.13-11.25,9.51,9.51,0,0,1,2.27,3.41,19.7,19.7,0,0,1,1.74-13.45l.92,5.14c-.88-4.93,5.81-24-2.52-27.1-1.81-.66-10-1.07-17.47,5.74a23.19,23.19,0,0,1,4-1.57l0,.11a10.26,10.26,0,0,0-4.79,3.64c.73-.23,1.46-.43,2.21-.62-.94,1.4.56,10.22-5.26,11.45a2.26,2.26,0,0,0,2.08.28,9,9,0,0,0,2.63-1.28l-.38,1.26-.06.06a64.34,64.34,0,0,0-4.9,6.63c-1.81,2.74-1.25,8.52-2.23,11.64a18.43,18.43,0,0,1,4.24-6.4,86.39,86.39,0,0,0-6.2,26.54.21.21,0,0,0,.41.09,11.49,11.49,0,0,1,.51-1.06.22.22,0,0,1,.41.12,5.11,5.11,0,0,1-1.89,3.41.21.21,0,0,0,.12.38c2.24.15.4,1.27,2.06,2.81,1.82,1.69,3.46,3.65,5.69,4.77a2.07,2.07,0,0,0,.78.26A1.77,1.77,0,0,0,50.73,172.86Z"/><path class="cls-15" d="M65.7,117.67q-.85,1.23-1.78,2.4c.85-1.88,1.15-7.1,1-7.61A11,11,0,0,1,63.74,116c.55-1,.33-3.38.27-4.53,0-.5-1.45-8-6.94-6.74,3.29-1.26,5.36-2.2,6.53-4,1.55-2.38,16.44-4.18,16.52-3.88.78,2.86-4.37,13.66-4.38,13.65s-2.34-.92-1.5,9.14c-.36-1.19-1.36-1.61-1.4-2.85-.56.67-2,8-2.73,8.68.39-1.62-.89-3.86-1.24-5.49a6.75,6.75,0,0,0-3.44,2.84A32.52,32.52,0,0,0,65.7,117.67Z"/><path class="cls-15" d="M124.3,156.84a7.31,7.31,0,0,1-4.34-.6c.77,0,4.55-.08,4.62-.17a19.08,19.08,0,0,1-4.84-2.38,17.54,17.54,0,0,1,5.37-1.13c-2.07-.73-2.36-.91-4.6-.56-2.89.45-4.65,3.87-7.54,3.93a4.42,4.42,0,0,0,3.62-.67,4.46,4.46,0,0,1-2.12,2.24,7.32,7.32,0,0,1-2.3.76,7.24,7.24,0,0,1-1.79-.29l.08.11q-1.22-.41-2.41-.91a10.15,10.15,0,0,0,4.68,2.47,21.91,21.91,0,0,1-14.33-1.91,11.87,11.87,0,0,0,7.31,3.78,22.48,22.48,0,0,1-17.87-.88A33.34,33.34,0,0,0,92.44,165c-.36,0-20.11,10.15-28.51-4.47,0-.05-2,1.24-2.09,1.27-2.82,1.18-5.94-3.55-6.8-.15-.36,1.43-9.66,6.61-8.59,8.62-.05-2.29.74,3.92,2.43,4.92-.55-3.37,12.43,5.56,12.25,5.12a.19.19,0,0,1,.3-.22c.23.2,3,1,1.75.81-3.38-.15,3,2.48,4,2.58a40.85,40.85,0,0,0,13.48-1l-5.26-.52a74.77,74.77,0,0,0,32.28-8.41l-5.38.54a24,24,0,0,0,10.9-6.32c.7-.67,1.38-1.38,2-2.1q1.51-1.13,2.92-2.4a9.58,9.58,0,0,1-1.8,1.11l.89-1.1a18.09,18.09,0,0,0,6.85-6.09C124.06,157.2,124.48,156.67,124.3,156.84Z"/><path class="cls-20" d="M60.14,162.55l.14.15-.07.14C60.19,162.74,60.17,162.65,60.14,162.55Z"/><path class="cls-16" d="M95.41,189c.59-.59.33-3.16.33-3.16s-1.57,3.62-2.62,3.88C92.54,189.88,95.41,189,95.41,189Z"/><polygon class="cls-15" points="64.77 89.68 66.78 91.82 66.08 86.04 64.77 89.68"/><polygon class="cls-15" points="60.33 79.19 62.91 81.98 65.63 75.7 60.33 79.19"/><polygon class="cls-15" points="59.44 76.31 62.46 77.15 67.88 69.97 59.44 76.31"/><path class="cls-15" d="M62,67.79s2.69,1.5,2,3l6.74-5.63S68.34,61.09,62,67.79Z"/><path class="cls-15" d="M65.08,59.25s1.86,2.23,1,4.12L73,62.22S73.45,56.29,65.08,59.25Z"/><path class="cls-15" d="M67.61,50.91s5,4.63,2.49,7.49c0,0,5.25.9,5.62,2.31C75.71,60.71,79.73,52.87,67.61,50.91Z"/><path class="cls-15" d="M76.45,45.86s2,3.8-1,6.38l5,5.72S85.52,50.87,76.45,45.86Z"/><path class="cls-15" d="M83.41,47.12s-.15,3.94-1.36,3.07l2.43,1.74S85.86,48.67,83.41,47.12Z"/><path class="cls-15" d="M99.31,46.92s-1.66,3.47.22,5.51l-6,3.79S91.68,48.67,99.31,46.92Z"/><path class="cls-15" d="M108.6,50.2s-3.84,3-1.42,6.48L96.81,58.21S98.38,49.89,108.6,50.2Z"/><path class="cls-15" d="M114.25,61s-3.18,1.13-3.21,2.72l-8.09-3.59S107.92,55.79,114.25,61Z"/><path class="cls-15" d="M117.4,69.45s-2.92-.63-2.89,1.15l-6.17-6.3S115.76,65.46,117.4,69.45Z"/><path class="cls-15" d="M120.09,77.45s-3.79-.74-4.58,1l-3.61-7.59S118,74.77,120.09,77.45Z"/><path class="cls-15" d="M119.93,85.07s-2.77-.11-3.88,2.09l-4.27-4.84Z"/><path class="cls-15" d="M116.39,94.35c-.35-1-2.5-2.56-2.5-2.56l1.39-4A23.22,23.22,0,0,1,116.39,94.35Z"/><path class="cls-16" d="M63.32,103a17.15,17.15,0,0,1,2.28-3.19,54.91,54.91,0,0,1,2.25,7.63l1-1.93,4.86,6.26,2-2.75,4.79,5.68,2.17-2.52A19.41,19.41,0,0,1,85,116a10.49,10.49,0,0,1,.68-3.08l2.23,3.15c.79-.58.89-1.86,1.78-2.28.61-.29,2.52,1.61,2.75,2.24L95,112.8a18.1,18.1,0,0,0,3.15,2.39l3-3.61,1.91,1.71,3.85-6.07.11,3.11q1.92-5.17,3.38-10.49c-3.44,2.89-7,5.84-11.28,7.19a17.2,17.2,0,0,1-7.61.62c-7.26-1.05-13-6.54-19.75-9.41-1.46-.62-3.92-2.42-5.51-2.33C62.36,96.13,63.35,100,63.32,103Z"/><path class="cls-15" d="M64.73,97.22a22.74,22.74,0,0,1,3.4,7.11l1.4-2.37a31.32,31.32,0,0,1,3.91,7.39,29.46,29.46,0,0,1,1.1-5.24l5.86,6.49L81,106a7,7,0,0,1,3.47,4.61,3.4,3.4,0,0,0,1.05-2.33,8.94,8.94,0,0,1,3.33,3.86L90,109.33l3.52,3.19L95.47,110l2.1,2.59,5.08-4a3.07,3.07,0,0,0,.92,1.86l5-7a16.89,16.89,0,0,0-1.15,6.59,25.58,25.58,0,0,0,3.35-7.2c.4.74,1.29.94,1.94,1.47,1.59-3.56-.1-7.45-.34-11.4-3.2-.5-6.34,1.08-9,2.91s-5.2,4-8.29,5c-5,1.55-10.32-.36-15.19-2.24A19,19,0,0,1,75,96.12c-1.83-1.41-3.1-3.45-4.93-4.86s-4.71-2-6.32-.35a5.72,5.72,0,0,0-1.16,4.18c0,1.25-.17,4.51,1.1,5.08C63.89,99.81,64.93,97.5,64.73,97.22Z"/><path class="cls-21" d="M75.67,82.57s-1.19-11.3,5.49-18.94c0,0,3.41,3.73,3.17,7.69l4.41-5.46,3.4,4.2,2.45-3.12,3.65,7.38,4.27-6.42,3.26,3.72L107.7,65a27.15,27.15,0,0,1,5,19.48l-3.21-1.06,1.69,2.9-3.48-.55.41,3-3.92-2.15,1.73,8.14-2.05-.68,1.19,4-2.36-.84-.25,4.44L100,98.18l-2.13,3.13L95,98.87,90.82,102l-1.36-3-3.51.72,2.32-4.4L85.7,96.29l1.39-5.37-2.73,1.21L86.41,85l-5.28,1.79,1.34-3.31-4-.09,2-2.34Z"/><polygon class="cls-22" points="79.3 63.63 82.56 73.13 86.88 65.86 90.58 73.23 93 69.31 96.05 77.39 100.65 67.9 104.3 73.32 107.7 65.03 79.3 63.63"/><circle class="cls-23" cx="95.44" cy="82.54" r="0.98" transform="translate(10.87 176.19) rotate(-88.77)"/><circle class="cls-23" cx="99.47" cy="82.63" r="0.98" transform="translate(14.73 180.31) rotate(-88.77)"/><path class="cls-22" d="M94.57,84.42a3.41,3.41,0,0,0,5.7.12Z"/><path class="cls-23" d="M88.05,77.09a3.34,3.34,0,0,1,3.23,2.86,3.34,3.34,0,1,0-6.58-.14A3.34,3.34,0,0,1,88.05,77.09Z"/><path class="cls-23" d="M104.3,77.57a3.34,3.34,0,0,1,3.23,2.86,3.34,3.34,0,1,0-6.58-.14A3.34,3.34,0,0,1,104.3,77.57Z"/><path class="cls-14" d="M89,88c0,.2,0,.4,0,.61a6.5,6.5,0,1,0,13,.28c0-.21,0-.41,0-.61Z"/><path class="cls-22" d="M97.74,96.07a3.46,3.46,0,0,1-4.52,0l-.74,0a3.48,3.48,0,0,0,6,.07Z"/><path class="cls-24" d="M112.28,71.4l7.81,6s-5.38-8.53-11.16-12.79c0,0,6.63,1.89,8.47,4.79,0,0-1.92-6.87-13.3-9.34a12.29,12.29,0,0,1,10.15.85s-6.5-7.92-16.44-3.53c0,0,1.72-6.32,10.8-7.23,0,0-7.89-2.23-14.88,4.92,0,0,0-6.83,5.9-8.29a17.11,17.11,0,0,0-12.33,4.5S86.12,47,83.41,47.12c0,0,1.53,2.89.55,3.82,0,0-4.49-5.5-7.52-5.08,0,0,7.17,6.19,3.73,11.36a10.26,10.26,0,0,0-12.57-6.3s9.64,2.27,8.06,9.38c0,0-1.32-5.11-10.78-1,0,0,7.32-.8,7.73,2.55,0,0-5-2.81-10.61,6,0,0,4.53-3.87,8.32-2.68L65,68.48l-5.57,7.82,8.07-6.18S61,76.5,60.33,79.19L65,76.43s-4.57,5.94-3.94,13.26A2.87,2.87,0,0,0,62.21,88S62,98,63,100.84l2.09-8.69,3.66,7.07.52-2.05,3.36,6.43,1.86-5,5,5.19,1-3.31,3.67,6.43,1-2.52,3.11,3.24,2.44-2.65L92,106.39l1.64-2.19,2.14,3.86,4.06-4.36,1.38,2.09,3.45-5.49,1.54,2.1,3-6.77s4,4.85,3.46,8.81c0,0,3.78-5.8,2.24-15.52a15.61,15.61,0,0,1,1.47,5.43s.75-5.54,0-7-2.18-4.32-2.18-4.32l5.72,2Zm.41,13.11-3.21-1.06,1.69,2.9-3.48-.55.41,3-3.92-2.15,1.73,8.14-2.05-.68,1.19,4-2.36-.84-.25,4.44L100,98.18l-2.13,3.13L95,98.87,90.82,102l-1.36-3-3.51.72,2.32-4.4L85.7,96.29l1.39-5.37-2.73,1.21L86.41,85l-5.28,1.79,1.34-3.31-4-.09,2-2.34-4.8,1.49s-1.19-11.3,5.49-18.94c0,0,3.41,3.73,3.17,7.69l4.41-5.46,3.4,4.2,2.45-3.12,3.65,7.38,4.27-6.42,3.26,3.72L107.7,65A27.15,27.15,0,0,1,112.69,84.52Z"/><path class="cls-25" d="M167.58,274.72c1.1,2.49-.37,5.57-2.8,6.79s-5.35.94-8,.22-5.15-1.85-7.84-2.27a25,25,0,0,0-9.85.86,14,14,0,0,1-4.76.67,6.46,6.46,0,0,1-5.37-4.4,3.15,3.15,0,0,1,0-2.16c.56-1.3,2.19-1.67,3.58-1.87,8.84-1.27,17.81-2.54,26.66-1.39C159.22,271.17,165.6,270.27,167.58,274.72Z"/><path class="cls-22" d="M162.53,272.24a1,1,0,0,0,.72.56,3.42,3.42,0,0,0,1.34.08,9.72,9.72,0,0,0,1.26-.32,7.67,7.67,0,0,0-3.26-1.3,2.46,2.46,0,0,0-.1.6A1,1,0,0,0,162.53,272.24Z"/><polygon class="cls-25" points="165.84 272.56 165.84 272.56 165.84 272.56 165.84 272.56"/><polygon class="cls-25" points="162.59 271.27 162.59 271.27 162.59 271.27 162.59 271.27"/><path class="cls-25" d="M171,277.05c1.1,2.49-.37,5.57-2.8,6.79s-5.35.94-8,.22-6-.58-8.68-.81c-3.57-.3-8.75-.37-12.09-.43-1.61,0-.75,0-2.42-.12a4.75,4.75,0,0,1-4.62-3.76,3.15,3.15,0,0,1,0-2.16c.56-1.3,2.19-1.67,3.58-1.87,8.84-1.27,17.81-2.54,26.66-1.39C162.68,273.51,169.07,272.61,171,277.05Z"/><path class="cls-14" d="M131.24,251.9a4.6,4.6,0,0,0-2.16,3.66c0-7.8,1.16-20.52,3.05-28.13l-1.72,2.26c.62-8,2.19-12.49,4.4-20.25l-2.37,1.49c1.27-4.24,2.56-8.64,2.52-13v-.19c1.28-2-22.57-3.68-21.07-5.53,1.63-2-5.21-20.33-3-20-.36,1,14.63,7.9,27.88,12.65,1.84.66-5.1-.86-3.25-.14,8.9,3.49,17.42,7.65,20.11,12a10.08,10.08,0,0,0-2.62-1.16c2.18,5.38,2.69,5.79,2,11.44a8.64,8.64,0,0,0-2.14-5.16c2.36,6.52,3.43,15.3,2.18,21.33-.3-1.56-.28-4.33-1.1-4.39,2.11,7-2.47,28.17-5.47,32.77a15.92,15.92,0,0,0,.4-5.68c-1.05,2.78-8.42,23.27,6.59,23.2,2.41-.21,5.07-.7,6.58-2.71-.32,1.85-1.86,3.11-3.36,4.16a4.42,4.42,0,0,1,4-.34,10.42,10.42,0,0,0-5.43,2.47,7.5,7.5,0,0,0,4.24-1.12,7.21,7.21,0,0,1-5.73,4.19,4.14,4.14,0,0,1,3.45,2.74,6.55,6.55,0,0,0-5.67-.51,1.35,1.35,0,0,0,1.3.4,4.3,4.3,0,0,1-2.15,2,9.7,9.7,0,0,1-2.84.7,35.46,35.46,0,0,1-5.78.26,4.48,4.48,0,0,0,2.37.65,16.26,16.26,0,0,1-5.7.91l-2.69-.14c-1.4-.07-5-.24-7.22-.37C131.23,275.32,127.79,261.06,131.24,251.9Z"/><path class="cls-22" d="M167.09,273.84s-2-.76-6.62.29a12.24,12.24,0,0,1,6.12-.9A4.88,4.88,0,0,1,167.09,273.84Z"/><path class="cls-26" d="M167.09,273.84s-2-.76-6.62.29a12.24,12.24,0,0,1,6.12-.9A4.88,4.88,0,0,1,167.09,273.84Z"/><path class="cls-16" d="M124.56,252.54a14.94,14.94,0,0,1,1.51-2.54,37.6,37.6,0,0,0-1.54,13,13.36,13.36,0,0,1,1.44-4.64,22.67,22.67,0,0,0-.53,5.12,8.22,8.22,0,0,0,1.63,4.8,98.26,98.26,0,0,1,5.09-17.07,3.86,3.86,0,0,0,.42-2,4,4,0,0,0-.44-1.1c-1.56-3-.67-14.44-1.77-17.63C130.37,230.44,124.63,250.15,124.56,252.54Z"/><path class="cls-15" d="M155.53,273a10.21,10.21,0,0,1-2.74-2.69l0-.09q1.15-.74,2.32-1.45a5.26,5.26,0,0,1-3.77-1v0a24.65,24.65,0,0,0-1.69-2.3c-1.4-1.67-3.51-2.6-5.38-3.81-.82-.53-1.6-1.11-2.47-1.57a15.25,15.25,0,0,0-4.48-1.34,25.72,25.72,0,0,0-5.06-.41,5.62,5.62,0,0,0-2.8.65c-.9.56-1.1-1.31-1.54-.41-.67,1.36.51,3.33-.22,5.43,0,0-1,0-1,0,1,3.35.15,6.83-.35,10.29-.27,1.86-.66,3.69-1.05,5.53-.44,1.51-.11,2.19.89,2.25l4.56.23c2.57.14,5.22.25,7.83.4a12.32,12.32,0,0,1-2.92-1.23c-.67-.42-1.35-1.15-1.09-1.9,1.24-3.59,6.87-2.08,8.9-1.64-1.24-.3-4.52-1.76-2.7-3.77,2-2.26,4.66-2.07,7.63-2.08h0C150.07,272.25,153.77,272.84,155.53,273Z"/><path class="cls-15" d="M105.51,211.71c-.05,0,6.56-1.58,6.55-1.64-18.62,1.76-28.15-9.54-26.67-11.5,1.61-2.15,21.52-6.61,23.53-8.4s-1.88-16.48.31-15.24c3.68,2.09,31.13,13,41.78,21.15,3.42,2.61,3.3,6.36,2.51,7.56-.49-1.27-.75-2.56-1,3.13a8.38,8.38,0,0,0-2.76-5,29.49,29.49,0,0,1,3,18.08c-.45-1.54-.67-4.3-1.56-4.29,2.88,6.83.61,29-2.28,33.82a14.49,14.49,0,0,0,.12-5.41,42.81,42.81,0,0,0-1.05,8.48,9.45,9.45,0,0,0,2.21,5.31,3,3,0,0,1-1.34-1,8.61,8.61,0,0,0,1.89,5.5,4,4,0,0,1-2.27-1.46,13.72,13.72,0,0,0,3,5.53c-3.41.8-9.17-1.91-12.66-1.89a54.12,54.12,0,0,1-5.49-.25,9.17,9.17,0,0,0-4.31.22c.45-2,1-4,1.61-5.9a5.82,5.82,0,0,0-2.18,4.48c-.66-7.78.5-24.85,1.92-32.58-.56.8-1.81,1.53-2.37,2.33,0-8,.92-9.34,2.69-17.25C129.87,216.08,109.83,215,105.51,211.71Z"/><path class="cls-25" d="M152.51,223.95a9.39,9.39,0,0,1-7.52-2.33c2.3,3.44,5.11,3.66,7.43,3C152.42,224.56,152.48,224.13,152.51,223.95Z"/><path class="cls-15" d="M143.4,278l.21,0Z"/><path class="cls-22" d="M166.63,273.72a12.88,12.88,0,0,0-4.25.05c.06.69.56,2.62,4.18,3,0,0,2.57.51,3.1-1.59A7,7,0,0,0,166.63,273.72Z"/><path class="cls-15" d="M60.84,275.74a16,16,0,0,1,1.48-2.8,40.31,40.31,0,0,0-.93,14,14.33,14.33,0,0,1,1.28-5.05,24.3,24.3,0,0,0-.28,5.51,8.81,8.81,0,0,0,2,5.05,105.35,105.35,0,0,1,4.51-18.56,4.14,4.14,0,0,0,.33-2.21,4.23,4.23,0,0,0-.53-1.16c-1.84-3.17-2.84-6.51-4.19-9.86C64.52,260.67,60.78,273.19,60.84,275.74Z"/><rect class="cls-25" x="63.02" y="297.26" width="22.44" height="4.85" transform="translate(0.57 -0.14) rotate(0.11)"/><path class="cls-22" d="M90.79,307.48l-26.31-.06c-1.06,0-3.42-1.75-3.41-2.8v.13A1.93,1.93,0,0,1,63,302.84l27.8.05a1.93,1.93,0,0,1,1.92,1.92v.75A1.93,1.93,0,0,1,90.79,307.48Z"/><path class="cls-25" d="M94.92,301.57c0,2,.37,4.85-1.41,5.92H87.93c-3.85,0-7-2.66-7-5.93s3.13-5.91,7-5.9S94.92,298.3,94.92,301.57Z"/><path class="cls-25" d="M81.9,303.16c0,3.63-1.47,4.3-4.57,4.29-2.3,0-2.87-2.08-2.87-4.45s-.22-4.15,2.88-4.15S81.9,300.79,81.9,303.16Z"/><path class="cls-25" d="M74.88,303.49c0,2.19-1.17,4-3.35,3.95a4,4,0,0,1,0-7.93C73.73,299.52,74.89,301.31,74.88,303.49Z"/><path class="cls-25" d="M68.65,303.94a3.88,3.88,0,1,1-3.86-3.52,3.76,3.76,0,0,1,3.61,2.46A3.25,3.25,0,0,1,68.65,303.94Z"/><path class="cls-22" d="M62.4,297.62c-.09.58-1,5.71-1,5.87a11.19,11.19,0,0,1,3.34-1.35,6.34,6.34,0,0,1,3.64.57c.68-.31,3.83-1.68,6.51-.32.76-.35,4.21-1.58,7.2-.06v0s.33-.17.9-.41c2.14-.88,8.94-2.16,12,.9a9.71,9.71,0,0,0-.27-2.81,13.57,13.57,0,0,0-.51-2.93Z"/><path class="cls-26" d="M88.57,301.44A6.29,6.29,0,0,1,93.52,304a6.07,6.07,0,0,0,.37-2.07,5.56,5.56,0,1,0-11.1,0,6.08,6.08,0,0,0,.3,1.89A6.38,6.38,0,0,1,88.57,301.44Z"/><path class="cls-26" d="M78.57,302.51a2.86,2.86,0,0,1,2.25,1.16,2.76,2.76,0,0,0,.17-.94,2.53,2.53,0,1,0-5,0,2.76,2.76,0,0,0,.14.86A2.9,2.9,0,0,1,78.57,302.51Z"/><path class="cls-26" d="M71.77,302.44a2.24,2.24,0,0,1,1.77.91,2.16,2.16,0,0,0,.13-.74,2,2,0,1,0-4,0,2.17,2.17,0,0,0,.11.68A2.28,2.28,0,0,1,71.77,302.44Z"/><path class="cls-26" d="M64.56,302.92a2.24,2.24,0,0,1,1.77.91,2.16,2.16,0,0,0,.13-.74,2,2,0,1,0-4,0,2.17,2.17,0,0,0,.11.68A2.28,2.28,0,0,1,64.56,302.92Z"/><path class="cls-22" d="M81.32,306.07s.47-.5.57-3.13c0,0,.09,2.74,1.33,3.67Z"/><path class="cls-22" d="M68,304.36h-.05a3,3,0,0,1-2,3.05l4.76,0A3.28,3.28,0,0,1,68,304.36Z"/><path class="cls-22" d="M74.64,304.4h0c-.24,1.84-.93,2.26-.93,2.26l1.83.12A3.69,3.69,0,0,1,74.64,304.4Z"/><path class="cls-15" d="M67.25,230.52c.87-4.69-11.67-30.4-10.2-32.59,1.61-2.39.18-10.74,2.24-12.77s1.43,4.23,3.86,3S87.7,202,86.93,203.31c-1.82-6.53,1.64,1.44,1.64,1.44,3.3,5.39,4.34,12.2,4.37,18.3a9,9,0,0,0-3.23-5.17A38.51,38.51,0,0,1,94,239.21c-.57-1.62-1-4.57-1.91-4.51,3.46,7.15-1.58,31-4.41,36.34a15.54,15.54,0,0,0-.17-5.8,45.9,45.9,0,0,0-.66,9.14,10.13,10.13,0,0,0,2.66,5.56,3.17,3.17,0,0,1-1.49-1,9.23,9.23,0,0,0,2.32,5.79,4.3,4.3,0,0,1-2.51-1.43,14.71,14.71,0,0,0,3.5,5.76c-3.61,1-14.72-1.54-18.44-1.33a58,58,0,0,1-5.9,0,9.83,9.83,0,0,0-4.6.47c.37-2.18.85-4.35,1.4-6.41a6.24,6.24,0,0,0-2.08,4.92c-1.14-8.29,2.26-26.66,3.37-35l-1.68,2.65c-.42-8.59,4.89-17.23,6.35-25.8Z"/><path class="cls-16" d="M75.14,186.21c-2.43,1.18-13.95-2.94-15.86-1s-.63,10.38-2.24,12.77c-1.47,2.19,11.07,28.9,10.2,33.59.85-.64,1.7-3.29,2.54-3.93-1.46,8.56-6.77,18.21-6.35,26.8l1.68-2.65c-1,7.8-4.06,24.34-3.53,33.24,3-7.68,5.42-28.28,5.42-28.28s0,6.5,2.25,8c-2.25-8,5.5-28.25,5.5-28.25s-.5,4-1,7.75c6.5-7.25,3-34,3-34s.5,3,1.25,6.5c-.25-2.75,0-8.5,7.75-13l-.53-10.13C82.41,203.67,76.52,185.54,75.14,186.21Z"/><path class="cls-14" d="M93,287.91c-.6-1.52-2.43-3-3.84-4-4.59-3.26-15.19.28-19.61,3-2.74,1.71-4.59,4.8-6.13,7.37-2.27,3.78-2.4,6.62-2.52,10.28a.7.7,0,0,1,.29-.12,10.56,10.56,0,0,1,3.32-5.1,3.39,3.39,0,0,1,1.93,2.34,4,4,0,0,1,2.27-3.21,4.52,4.52,0,0,1,0,3.76,6,6,0,0,0,2.84-4.41,2.67,2.67,0,0,1,2.69,1.61,6.32,6.32,0,0,1,.29,3.1q1.72-2.31,3.62-4.52c.25,2.09,4.63,4.41,7,4.33a3.68,3.68,0,0,1-2-3.3,6.7,6.7,0,0,1,2.83-1.59,6.9,6.9,0,0,1,7,1.79,6.33,6.33,0,0,1,1.31,2.16c.19-.73.37-1.53.62-2.45C95.49,296.28,94.38,291.33,93,287.91Z"/><path class="cls-15" d="M60.83,293.71v0A58.59,58.59,0,0,1,64.27,282c.42-1,.74,1,1.67.35a6,6,0,0,1,3-.85,27.58,27.58,0,0,1,5.44.16c1.68.2,3.22,1.07,4.87,1.18,4.65.31,9.05,3.23,10,3.75,2.07,1.19-.87.69-2.94.38,4,1.56,5.35,6,6.45,8.21-3.09-2-13.83.25-13.34,1.82a15.83,15.83,0,0,1-1.55-5.18c-2.67.1-2.38,3.4-2.27,4.26-.72-.9-2.09-6.61-8.78-4a6.29,6.29,0,0,1,5.2,2.35,13.22,13.22,0,0,0-5.43-.49,6.73,6.73,0,0,0-5.17,7.48A7.65,7.65,0,0,1,60.83,293.71Z"/><path class="cls-25" d="M80.15,253.57s4.59,6.55,9.55,1.59A7.38,7.38,0,0,1,80.15,253.57Z"/><line class="cls-27" x1="130" y1="284.95" x2="167" y2="284.95"/><line class="cls-28" x1="231" y1="216.95" x2="231" y2="243.95"/><line class="cls-28" x1="231" y1="49.95" x2="231" y2="76.95"/><path class="cls-15" d="M89.94,207.26c-2.13-4.26-4.69-10.94-7.82-12.51,2.56,4.12-.71,9.66-.71,10.66,2.13-1.14,3-4.26,3-4.26s-1.29,4.81-1.57,5.24S89.94,207.26,89.94,207.26Z"/><path class="cls-16" d="M134.72,212.85c-1.39.7-.84,5.85-1.67,4.73s-2.65-7.24-11-7.38a10.25,10.25,0,0,1,4.32,2.51,73.7,73.7,0,0,1-13.45,1.4c7.4,1.38,17.2,1.8,17.77,1.41-1.77,7.91-2.67,9.23-2.69,17.25.56-.8,1.81-1.53,2.37-2.33a182.08,182.08,0,0,0-2.09,29l.1,3.52c-1.21-3.83,4-20.64,4.67-22.45l.05-.14c1.44-3.11,2.81-7,2.46-9.88.16.07,2.3,4.15,2.43,4.25C137.33,228.27,134.46,214.9,134.72,212.85Z"/><path class="cls-16" d="M94.25,206.7c6.63.47,23.25-.75,26.75-.75-2.75.75-7.25,1.75-7.25,1.75s12.75,1.5,17.5,6.25,5.88,1.89-.56,1.57-19.16.19-25.18-3.82a19.34,19.34,0,0,0,6.55-1.64S100.75,210.7,94.25,206.7Z"/><path class="cls-15" d="M147.81,266.49c-5.49-.53-9.92,3.17-10.34,5.59-.63-1.27.84-4.22,2-4.85-3.48,1.06-8.86,7.49-8.76,9.18-1.69-2.64.21-7.7.95-8.34-1.9,1.69-2,5.38-3.38,6,0-2.11-.63-9.92,1.16-11s5.58-5.43,7.8-4.35S147.81,266.49,147.81,266.49Z"/><path class="cls-15" d="M110.24,174.92c-3.57,3.19-5.32,7.57-4.82,9.4-1.17-.83-1.58-2.54-.25-4.54-2.07,2.07-5.58,9.67-4.32,13.26a6.8,6.8,0,0,1-1.07-8.19c-1.17,1.33-4.26,8-7.59,9a15.73,15.73,0,0,0,2-2.89c-1.33.83-4.3,5.76-8.49,7.23-1.26.44,11,2.94,11.65,2.94s23.67-6.5,23.67-6.5Z"/><path class="cls-14" d="M116.17,178.54c4.33,1.92,11.25,6.33,12.58,7.92-.92-1.67-3.33-3.67-3.67-4.08,2.83,1.67,16.25,7.67,17.75,11-1.08-2.17-1.08-2.58-2.25-3.67a59.39,59.39,0,0,0,6.67,3.75L129,181.7Z"/><path class="cls-29" d="M130.43,249.28c-1.82,8.92,1.33,18.07,3.33,20.07a12.55,12.55,0,0,1-3-2.69s-3.88,6.38-2.73,8.91c-1-.54-.92-7.76-.92-7.76L126,263.66l.77-9.38Z"/><path class="cls-16" d="M89.67,90.15a12.45,12.45,0,0,0,4,.88,17,17,0,0,0,4.21-.16,17.23,17.23,0,0,1-4.22.66,13.16,13.16,0,0,1-4.35-.45.5.5,0,1,1,.29-1l.05,0Z"/><path class="cls-30" d="M289,225.45h0a4.5,4.5,0,0,1,4.5,4.5v5.5a0,0,0,0,1,0,0h-9a0,0,0,0,1,0,0V230A4.5,4.5,0,0,1,289,225.45Z"/><rect class="cls-14" x="281" y="230.95" width="16" height="13" rx="3" ry="3"/><line class="cls-31" x1="289" y1="235.95" x2="289" y2="237.95"/><circle class="cls-10" cx="134.5" cy="82.45" r="1.5"/><circle class="cls-10" cx="134.5" cy="92.45" r="1.5"/><circle class="cls-10" cx="146.5" cy="82.45" r="1.5"/><circle class="cls-10" cx="146.5" cy="92.45" r="1.5"/><circle class="cls-10" cx="140.5" cy="87.45" r="1.5"/><circle class="cls-10" cx="158.5" cy="82.45" r="1.5"/><circle class="cls-10" cx="158.5" cy="92.45" r="1.5"/><circle class="cls-10" cx="152.5" cy="87.45" r="1.5"/><circle class="cls-10" cx="134.5" cy="42.45" r="1.5"/><circle class="cls-10" cx="134.5" cy="52.45" r="1.5"/><circle class="cls-10" cx="146.5" cy="42.45" r="1.5"/><circle class="cls-10" cx="146.5" cy="52.45" r="1.5"/><circle class="cls-10" cx="140.5" cy="47.45" r="1.5"/><circle class="cls-10" cx="158.5" cy="42.45" r="1.5"/><circle class="cls-10" cx="158.5" cy="52.45" r="1.5"/><circle class="cls-10" cx="152.5" cy="47.45" r="1.5"/><circle class="cls-10" cx="134.5" cy="162.45" r="1.5"/><circle class="cls-10" cx="134.5" cy="172.45" r="1.5"/><circle class="cls-10" cx="146.5" cy="162.45" r="1.5"/><circle class="cls-10" cx="146.5" cy="172.45" r="1.5"/><circle class="cls-10" cx="140.5" cy="167.45" r="1.5"/><circle class="cls-10" cx="158.5" cy="162.45" r="1.5"/><circle class="cls-10" cx="158.5" cy="172.45" r="1.5"/><circle class="cls-10" cx="152.5" cy="167.45" r="1.5"/><circle class="cls-32" cx="211" cy="41.95" r="3.5"/><circle class="cls-33" cx="211" cy="53.95" r="2.5"/><circle class="cls-33" cx="211" cy="81.95" r="3.5"/><circle class="cls-33" cx="211" cy="93.95" r="2.5"/><circle class="cls-34" cx="211" cy="121.95" r="3.5"/><circle class="cls-32" cx="211" cy="133.95" r="2.5"/><circle class="cls-33" cx="211" cy="161.95" r="3.5"/><circle class="cls-33" cx="211" cy="173.95" r="2.5"/><circle class="cls-10" cx="198.5" cy="163.45" r="2.5"/><circle class="cls-32" cx="211" cy="201.95" r="3.5"/><circle class="cls-33" cx="211" cy="213.95" r="2.5"/><circle class="cls-33" cx="211" cy="241.95" r="3.5"/><circle class="cls-34" cx="211" cy="253.95" r="2.5"/><path class="cls-35" d="M275.64,72a7.91,7.91,0,0,1,4.25,1.25A11.86,11.86,0,0,1,302.56,72a8,8,0,0,1,7.68,9.19A8.13,8.13,0,0,1,302.11,88H275.89a8.14,8.14,0,0,1-8.14-6.79A8,8,0,0,1,275.64,72Z"/><path class="cls-36" d="M111.37,235.6c-49.62,63.25,76.63,87,76.63,9.85V174c0-6.5,4.24-10.5,10.51-10.5"/><path class="cls-37" d="M110.75,223.6C65.91,286.85,177,332.62,177,255.45c0-47.5-19.5-122,7-135.5h10"/><path class="cls-12" d="M179.61,121.68c2.82-2,4.94-.74,8-.6,1.87.09,2.45-.12,3.07-2.13a22.52,22.52,0,0,0-10.53-2.73Z"/></g></g></g></svg>