<svg xmlns="http://www.w3.org/2000/svg" width="387.98" height="311.77" viewBox="0 0 387.98 311.77"><defs><style>.cls-1{isolation:isolate;}.cls-2{fill:#e6f1ff;}.cls-29,.cls-3,.cls-6{fill:#525ecc;}.cls-4{fill:#8997e5;stroke:#8997e5;}.cls-19,.cls-28,.cls-30,.cls-31,.cls-4{stroke-miterlimit:10;}.cls-5{fill:#346;}.cls-20,.cls-21,.cls-6{opacity:0.2;}.cls-7{fill:#c5e9fa;}.cls-8{fill:#f6fbfd;}.cls-9{fill:#333d61;}.cls-10{fill:#fff;}.cls-11{fill:#dcf1f9;}.cls-12{fill:#6ccce6;}.cls-13,.cls-14{fill:#049cbe;}.cls-14{opacity:0.5;mix-blend-mode:multiply;}.cls-15{fill:#9dd9ef;}.cls-16{fill:#00b4d2;}.cls-17{fill:#465578;}.cls-18{opacity:0.1;}.cls-19,.cls-27,.cls-28,.cls-30,.cls-31{fill:none;}.cls-19{stroke:#f3f7ff;}.cls-19,.cls-28,.cls-29,.cls-31{stroke-width:2px;}.cls-21{fill:#f3f7ff;}.cls-22{fill:#f29101;}.cls-23{fill:#ffa733;}.cls-24{fill:#ffb966;}.cls-25{fill:#ffca83;}.cls-26{fill:#1d1099;}.cls-27,.cls-30,.cls-31{stroke:#fff;}.cls-27,.cls-28,.cls-29,.cls-30,.cls-31{stroke-linecap:round;}.cls-27,.cls-29{stroke-linejoin:round;}.cls-27{stroke-width:3px;}.cls-28{stroke:#465578;}.cls-29{stroke:#525ecc;}.cls-32{fill:#e58200;}</style></defs><title>12-small-businesses</title><g class="cls-1"><g id="Layer_2" data-name="Layer 2"><g id="Layer_7" data-name="Layer 7"><path class="cls-2" d="M330.3,38.32C419.35,97,367.53,220.39,251.42,278.75,86,361.92-99.88,113.6,62.85,28.36,152.47-18.59,269.72-1.6,330.3,38.32Z"/><rect class="cls-3" x="117.1" y="28.03" width="208" height="208" rx="9.06" ry="9.06"/><rect class="cls-4" x="64.6" y="15.53" width="247" height="229" rx="10.36" ry="10.36"/><path class="cls-5" d="M232.1,248c-1,7,5,15,43,10,2-37-26.88-29.52-30.44-25.76S232.84,242.84,232.1,248Z"/><ellipse class="cls-6" cx="270.25" cy="308.37" rx="59.27" ry="3.4"/><path class="cls-7" d="M328.46,139.74a22.65,22.65,0,0,0-4.2-9.84,5.26,5.26,0,0,1,3.11,2.22,29.67,29.67,0,0,0-3.11-5.81,14.2,14.2,0,0,0-7.61-8.24,10.76,10.76,0,0,1,3.58,1.35c-4-12.11-22.28-15.83-22.28-15.83A15.13,15.13,0,0,0,294.35,118a10.49,10.49,0,0,1,1.11-2.72,21.41,21.41,0,0,0,2.15,16,11.76,11.76,0,0,1-.22-3.81c.27,5.32,3.3,10.24,7.33,13.72a5.76,5.76,0,0,1-1.79-3,9.75,9.75,0,0,0,2.2,2.17c.83,3.68,1.39,6.21,1.41,6.51.1,1.49,9.61,12.17,8.48,16a2.23,2.23,0,0,1,0,.82,4.35,4.35,0,0,0,1-1.35,3.36,3.36,0,0,1,.39-1.45l-.25,1.13a4.37,4.37,0,0,0,.26-1l0,1.49a11.7,11.7,0,0,0,5.23-8.16,5.5,5.5,0,0,1,.37,3,40.35,40.35,0,0,0,2.65-9.35,4.82,4.82,0,0,1,.77,2.31,24.47,24.47,0,0,0,.48-13A4.24,4.24,0,0,1,328.46,139.74Z"/><path class="cls-8" d="M316,162.69l.14-.63c0,.11-.09.21-.14.32S316,162.58,316,162.69Z"/><path class="cls-7" d="M318.91,136.7c-1.54-9.3-4.06-23.53-9.66-29H260.48L256,111.93a104.35,104.35,0,0,0-6.08,23.49l3.3-4.4a61.58,61.58,0,0,0-4.44,22.89,42.11,42.11,0,0,1,6.1-10.22v.05a63.32,63.32,0,0,0-6.78,30.74,28,28,0,0,1,2.57-6.21c-1.82,6.79-3.33,15.94-1.1,20.81-.62-1.36,0-4.92.9-6,.27.89.54,7.21.59,9.08a37.62,37.62,0,0,0,1.86,10.69c-.59-1.77.17-5.12.67-6.85.17.56.32,1,.44,1.46h0l0,.1a7.58,7.58,0,0,1,.21,1.78,15.91,15.91,0,0,0,.83,5,12.17,12.17,0,0,1,.21-2.76c1.65,4.85,3.69,9.22,6.08,11.09-.4-1.34-2.58-5-2.06-9.06,1.34,6.58,3.68,10.5,6.32,12.28a35.19,35.19,0,0,0,18.69,5.21,36.73,36.73,0,0,0,9.53-1.24c4.33-1.47,6-5.32,9.33-9.37a13.37,13.37,0,0,1-5,7.89A24.88,24.88,0,0,0,310,209.82c2.23-4.19-5.36-12.85-5.63-17.65,1.51,5.13-.22,12.22-1.18,15.06.25-.53,2.64-3.54,2.85-4.08,5.59-13.25,14.2-29.57,11-43.63a30.5,30.5,0,0,1,3.07,11C320.4,159.25,320.76,147.84,318.91,136.7Z"/><path class="cls-9" d="M208.66,95.06a44.35,44.35,0,0,0-4.3-4.31,15.1,15.1,0,0,1-1-5.32s-2.17-6.94-3.86-9.28c-1.19-1.64-1.1-2.19-1.56-2.09,0,0,.18,3-.52,4.16s-.26,2.68-.22,6.28c.07.66,0,2.93-1.14,1.62-2-2.28-4.09-6.75-6-5.11-1.09,1-2.51,4.07-1.64,4.62-.83,0-3.07,3.48-1.7,5.76-1.15.41-2.48,3-.49,5.45.63.78,3.9-1,3.9-1,2.09,1.69,8.65,6.85,9.65,6.49,2,.94,2.67.48,2.67.48Z"/><path class="cls-10" d="M217.77,139.38a16.9,16.9,0,0,1-1.11-5.77,5.88,5.88,0,0,1,.34-2,1.92,1.92,0,0,1,.39-.65c.15-.18,0-.06.2-.19a1.26,1.26,0,0,1,.22-.14.8.8,0,0,0,.43-1,.18.18,0,0,1,.14-.22,45.76,45.76,0,0,0,13.74-5.17,4,4,0,0,1-4-.43,36,36,0,0,0,12.5-6.31,64,64,0,0,1,6.43-5c4.25-2.53,12.13-2.33,14.62,4.25-23.81,34.71,4.35,1.23-27.38,22.52q-5.86,3.93-11.83,7.7a.18.18,0,0,1-.23,0A20.72,20.72,0,0,1,217.77,139.38Z"/><path class="cls-10" d="M196.59,108.19c.16,1.44.49,3.13,1.8,3.72a17.36,17.36,0,0,1-1.34-12.18,6.31,6.31,0,0,0,3.18,2.61,3.57,3.57,0,0,1-.31-.41L197.42,99a17.81,17.81,0,0,0,4.88,1.86,17.11,17.11,0,0,0-2.76-4.53,42.07,42.07,0,0,1,5.26,2.2A3.26,3.26,0,0,1,204,95.8,3.46,3.46,0,0,0,206.18,97c-.76-1.05-2.08-2.29-3.38-2.31,2.66-1.87,4.2,1,4.65,2a4.92,4.92,0,0,1,.25-4.4,25,25,0,0,0,5.48,12.95,5.43,5.43,0,0,0-.94-3.94c4.19,5.07,8.48,10.3,10.46,16.57l.11-3.14a15.52,15.52,0,0,1,3,9.9l2.34-3.37a7.4,7.4,0,0,0,1,9.27.18.18,0,0,0,.28-.22,9.13,9.13,0,0,1-.84-2,.18.18,0,0,1,.3-.17c1.33,1.39,3.52,2.6,4.27,4.07s.24,5.81.22,7.73a.18.18,0,0,1-.21.17l-1.58-.3a.18.18,0,0,0-.19.26c1.09,2.15,2.09,4.35,3,6.61,1,2.55,3.27,9.38-1,10.14a41.88,41.88,0,0,1-4.86.17,43.15,43.15,0,0,0-6.56.38.18.18,0,0,1-.14-.32,5.3,5.3,0,0,1,1.22-.62.18.18,0,0,0,0-.35,8.44,8.44,0,0,0-1.39.06.18.18,0,0,1-.18-.13,12.75,12.75,0,0,0-.95-2.2.18.18,0,0,0-.34.12h0a.18.18,0,0,1-.28.19,17.05,17.05,0,0,1-6.31-8.84,5.49,5.49,0,0,1,2,1.46A53,53,0,0,0,205.12,137a9.94,9.94,0,0,1,3.34,1.36,22.89,22.89,0,0,1-9.23-14.58,7.76,7.76,0,0,0,2.16,2.78A39.84,39.84,0,0,1,196.59,108.19Z"/><path class="cls-7" d="M197.06,99.73,197,100C197,99.9,197,99.82,197.06,99.73Z"/><path class="cls-7" d="M197.06,99.73a7,7,0,0,0,3.26,2.66c-.47-.57-2.92-3.25-2.9-3.37a18.34,18.34,0,0,0,4.84,1.85,16.85,16.85,0,0,0-2.72-4.52c1.87,1,2.18,1.06,3.4,2.87,1.57,2.33.32,5.81,2.17,7.88a4.24,4.24,0,0,1-1.89-3,4.29,4.29,0,0,0-.19,3,7,7,0,0,0,1,2.11c.42.56,1,.69,1.37,1.07h-.13q1.09.59,2.22,1.1a9.76,9.76,0,0,1-4.81-1.68,21.06,21.06,0,0,0,10.72,8.84,11.41,11.41,0,0,1-7.44-2.67,21.61,21.61,0,0,0,12.31,12,32,32,0,0,1-6.05-.39c.26.24,1.92,13.31,22.16,19.34a.18.18,0,0,1,.12.11c1,2.76,1.89,12.27-2.22,13a41.88,41.88,0,0,1-4.86.17,43.15,43.15,0,0,0-6.56.38.18.18,0,0,1-.14-.32,5.3,5.3,0,0,1,1.22-.62.18.18,0,0,0,0-.35,4.57,4.57,0,0,0-.9,0,1.39,1.39,0,0,1-.73,1.12c-1.2.53-3.78-2.31-4.54-3a39.26,39.26,0,0,1-8.1-10.16l3.81,3.36a71.87,71.87,0,0,1-15.21-28.23l3.14,4.14a23,23,0,0,1-2.69-11.81c0-.94.07-1.87.16-2.8q-.19-1.81-.22-3.63a9.2,9.2,0,0,0,.4,2q.09-.68.19-1.35A17.39,17.39,0,0,1,197,100C197,100.13,197.06,99.49,197.06,99.73Z"/><path class="cls-7" d="M216.31,155.63c.13-1.57,1.47-2.73,2.75-3.65.93-.67,1.89-1.31,2.86-1.92-2.55-1.14-5.19-2.72-6.27-4.78a.18.18,0,0,1,.16-.27c2.92-.1,4.43-.88,5-1.47a.18.18,0,0,0-.11-.3,14.6,14.6,0,0,0-3.39.26.18.18,0,0,1-.12-.33c5.16-3.29,11.32-7.15,17.24-8.45a8,8,0,0,0-5.59-1.1,49.82,49.82,0,0,1,9.4-2.71,8.17,8.17,0,0,0-3.46-.4,17,17,0,0,0,9.6-6.46l-4.28,1.28c4.1-1.23,15-14,20.54-9A17.12,17.12,0,0,1,264,132.15a19.29,19.29,0,0,0-.34-3.62l-.09,0a8.61,8.61,0,0,1-1,5c-.1-.64-.23-1.27-.37-1.89-.71,1.24-6.32,6.29-5,11.14a1.88,1.88,0,0,1-1-1.46,7.46,7.46,0,0,1,0-2.47l-.81.77,0,.07a54.62,54.62,0,0,1-3.19,6.22c-1.4,2.41-6,4.2-8,6.13a15.68,15.68,0,0,0,3.27-5.64,74.49,74.49,0,0,1-17.9,14.83.18.18,0,0,1-.23-.27,9.83,9.83,0,0,0,.62-.79.18.18,0,0,0-.25-.26,4.36,4.36,0,0,0-1.88,2.73.18.18,0,0,1-.33.06,8.6,8.6,0,0,0-4.62-3.27c-2-.72-4.1-1.2-5.81-2.44a1.73,1.73,0,0,1-.49-.49A1.47,1.47,0,0,1,216.31,155.63Z"/><path class="cls-10" d="M253.72,125.4q-1,1.3-2.15,2.52c1.08-2,1.78-7.76,1.65-8.34a12.21,12.21,0,0,1-1.54,3.79c.69-1.1.61-3.71.62-5,0-.55-1-9-7.18-8,3.73-1.15,6.08-2,7.51-4,1.88-2.51,9-2.48,9.05-2.14.66,3.22,3.77,11.17,3.66,13.83,0,0-3,6-3.26,10.84a16.09,16.09,0,0,1-.4-4.1c-.66.7-2.78,8.74-3.65,9.4.55-1.77-.7-4.34-1-6.16a7.48,7.48,0,0,0-4,2.89A36,36,0,0,0,253.72,125.4Z"/><path class="cls-10" d="M247.15,121.85a11.28,11.28,0,0,0,3.23-4.27,3.29,3.29,0,0,0-2.83,2.84,10.86,10.86,0,0,1,0-3.8,4.47,4.47,0,0,1,2.08-3.06c.84-.45,2.67-.62,3.31.33.51.75-.34,2.32-.69,3A10.47,10.47,0,0,1,247.15,121.85Z"/><path class="cls-10" d="M241.62,119.57a11,11,0,0,0,8.52-4.5l-3.47-.25a2,2,0,0,0-1.85.48,18.75,18.75,0,0,0-1.2,1.93C243.33,117.65,242.15,119.56,241.62,119.57Z"/><path class="cls-10" d="M259.13,137.87l2.93-4.53a179.66,179.66,0,0,0-4.6,37.57l2.43-5.63a63.35,63.35,0,0,0-.37,19.83c1.08,6.51,3.85,12.77,8.24,16.47-1.2-2.28-2-4.43-1.61-6.88,3.53,7.55,6.7,11.47,18.11,11.47s13.8-8,15.89-11.47c-.14,2-.73,6.65-1.67,8.24,3.36-2.33,5.85-6.36,7.33-10.82A47.56,47.56,0,0,0,307.88,178a11.1,11.1,0,0,1,1.16,6.71,41.48,41.48,0,0,0-1-24.05,7.15,7.15,0,0,1,2.75,3.2c.75-7.09-1.28-14.57-5.32-19.61l3.34,2.07a97.38,97.38,0,0,0-6.67-19.86l4.31,5.1a86.37,86.37,0,0,0-7.57-23.84H266.26c-1,2.38-3.73,12.78-4.51,15.62A65.3,65.3,0,0,0,259.13,137.87Z"/><path class="cls-11" d="M285.28,163.9a4.79,4.79,0,0,0-2.07,2.61c-.21,1.12.88,2.46,1.92,2a1.44,1.44,0,0,0,.78-2.08,1,1,0,0,0-1.19-.46c-.48-.31.06-1,.92-2.36"/><path class="cls-11" d="M269,152.17s14.58-12.82,31.26.44C300.23,152.61,284.62,143.54,269,152.17Z"/><path class="cls-12" d="M254.42,309c5.17,0,9.51.19,9.75-8.25.08-2.62-5.48-10.59-3.92-17.25.77-3.26-4.33-4.83-8.17-2s-6.67,11.33-6.17,12.5S246.25,309,254.42,309Z"/><path class="cls-7" d="M266.08,280.23a15.5,15.5,0,0,0-.93-2.92,39,39,0,0,1-1.51,13.51,13.86,13.86,0,0,0-.36-5,23.51,23.51,0,0,1-.68,5.29,8.53,8.53,0,0,1-2.78,4.46,101.94,101.94,0,0,0-1.11-18.45,4,4,0,0,1,.06-2.16,4.1,4.1,0,0,1,.7-1c2.29-2.7,3.82-5.72,5.68-8.68C265.16,265.25,266.57,277.81,266.08,280.23Z"/><path class="cls-13" d="M248.52,308.72l-25.45-.27c-1,0-3.29-1.72-3.28-2.74v.12a1.86,1.86,0,0,1,1.88-1.84l26.9.28a1.86,1.86,0,0,1,1.84,1.88v.73A1.86,1.86,0,0,1,248.52,308.72Z"/><path class="cls-12" d="M252.56,303c0,1.92.31,4.69-1.41,5.71l-5.39-.06c-3.73,0-6.72-2.63-6.68-5.8s3.08-5.69,6.8-5.66S252.59,299.87,252.56,303Z"/><path class="cls-12" d="M239.95,304.46c0,3.52-1.46,4.15-4.46,4.11-2.23,0-2.76-2-2.74-4.33s-.18-4,2.82-4S240,302.16,239.95,304.46Z"/><path class="cls-12" d="M233.16,304.73c0,2.12-1.17,3.81-3.28,3.79a3.84,3.84,0,0,1,.08-7.67C232.07,300.87,233.18,302.61,233.16,304.73Z"/><path class="cls-12" d="M227.13,305.1a3.75,3.75,0,1,1-3.7-3.44,3.64,3.64,0,0,1,3.47,2.41A3.14,3.14,0,0,1,227.13,305.1Z"/><path class="cls-13" d="M225.13,298.94c-.09.56-5,4.51-5,4.67.36-.16,1.95-.14,3.24-.28a6.13,6.13,0,0,1,3.51.58c.66-.3,3.72-1.59,6.3-.25.74-.33,4.08-1.49,7,0,0,0-1,0-1,0a10.77,10.77,0,0,0,1.88-.38c2.08-.84,5.67-3,8.57,0,0,0,3.09-.94,2.77-1.72a13.13,13.13,0,0,0-.46-2.84Z"/><path class="cls-14" d="M245.42,302.85a6.09,6.09,0,0,1,4.77,2.51,5.87,5.87,0,0,0,.37-2,5.38,5.38,0,1,0-10.74-.11,5.88,5.88,0,0,0,.27,1.83A6.18,6.18,0,0,1,245.42,302.85Z"/><path class="cls-14" d="M235.73,303.81a2.77,2.77,0,0,1,2.17,1.14,2.67,2.67,0,0,0,.17-.91,2.44,2.44,0,1,0-4.88-.05,2.67,2.67,0,0,0,.12.83A2.81,2.81,0,0,1,235.73,303.81Z"/><path class="cls-14" d="M229.16,303.68a2.17,2.17,0,0,1,1.7.89,2.09,2.09,0,0,0,.13-.72,1.92,1.92,0,1,0-3.83,0,2.1,2.1,0,0,0,.1.65A2.2,2.2,0,0,1,229.16,303.68Z"/><path class="cls-14" d="M222.18,304.09a2.17,2.17,0,0,1,1.7.89,2.09,2.09,0,0,0,.13-.72,1.92,1.92,0,1,0-3.83,0,2.1,2.1,0,0,0,.1.65A2.2,2.2,0,0,1,222.18,304.09Z"/><path class="cls-13" d="M239.36,307.27s.46-.48.58-3c0,0,.07,2.65,1.26,3.56Z"/><path class="cls-13" d="M226.49,305.51h0a2.92,2.92,0,0,1-2,2.94l4.6.07A3.18,3.18,0,0,1,226.49,305.51Z"/><path class="cls-13" d="M232.91,305.6h0c-.25,1.78-.92,2.18-.92,2.18l1.77.13A3.57,3.57,0,0,1,232.91,305.6Z"/><path class="cls-7" d="M272.29,236.89c0-4.62,13-20.4,14.44-24.73,0-.06-10,.87-9.94.81-.74-2.44-4.6,5.15-5.63,2.82a42.43,42.43,0,0,0-4-7.32c-1.5-2.13-6.26-4.11-8.37-5.66s-2.81-6.7-5.29-7.11c-1.08,4.32-5.64,14.18-5.13,15.58a22.31,22.31,0,0,1,2.9-3c-4.07,4.57-4,11.26-5.12,17.07a8.7,8.7,0,0,1,4-4.37c-4.63,5.64-6.22,13.2-6.78,19.58.82-1.44,1.69-4.18,2.59-4-4.52,6.22-5.46,29.14-3.68,34.7a15,15,0,0,1,1.15-5.49,44.41,44.41,0,0,1-.94,8.82,9.8,9.8,0,0,1-3.49,4.84,3.07,3.07,0,0,0,1.59-.71,8.93,8.93,0,0,1-3.21,5.11,4.16,4.16,0,0,0,2.64-.94,14.23,14.23,0,0,1-4.32,4.89c3.26,1.62,9.72.23,13.23,1.07a56.15,56.15,0,0,0,5.61,1,9.52,9.52,0,0,1,4.3,1.24c0-2.14-.07-4.29-.23-6.34a6,6,0,0,1,1.14,5c2.5-7.7,6.06-25.12,6.45-33.26l1.15,2.81a114.87,114.87,0,0,0,2.93-24.83Z"/><path class="cls-8" d="M256.85,289.8c-.57-1.48-5.36-2-6.71-2.94-4.41-3.19-22.55,11.09-26.49,12.78.09-.06-2,2.29-.46,1A3.28,3.28,0,0,1,225,302.9a3.84,3.84,0,0,1,2.23-3.09,4.38,4.38,0,0,1-.08,3.64A5.8,5.8,0,0,0,230,299.2a2.59,2.59,0,0,1,2.59,1.58,6.11,6.11,0,0,1,.25,3q1.69-2.23,3.54-4.34c.23,2,4.44,4.31,6.69,4.25a3.56,3.56,0,0,1-1.9-3.21,6.49,6.49,0,0,1,2.76-1.52,6.68,6.68,0,0,1,6.73,1.79,6.13,6.13,0,0,1,1.25,2.1c.19-.7.37-1.48.62-2.36C253.16,297.91,258.12,293.12,256.85,289.8Z"/><path class="cls-12" d="M244.66,249.58s3.25,7,8.83,3.15A7.14,7.14,0,0,1,244.66,249.58Z"/><path class="cls-7" d="M263.45,295.39s-1-8-1-8c-1.25-6.93-12.11-.63-13.22-3.29-.4-1-.73,1-1.62.33a5.83,5.83,0,0,0-2.86-.85,23.32,23.32,0,0,0-3.18,0c.17,2-3.09,4.27-3.8,4.43s2.83-.08,3.25-.58-2.67,3.5-4.17,4.17c-1.19.53-7.52,5-13.24,7.46,5.16-1.63,11.3-.79,10.9.48a21.39,21.39,0,0,0,1.55-6c2.58.12,2.28,3.31,2.16,4.14.7-.86,2.08-6.38,8.53-3.82a6.09,6.09,0,0,0-5.05,2.24,12.79,12.79,0,0,1,5.26-.43c1.25.37,6.44,1.6,4.94,7.28,0,0,3.93,1.57,9-4,.37-.41-2,5.52-1.49,5.32C263.83,302.44,264.37,297.15,263.45,295.39Z"/><path class="cls-7" d="M283.66,277.74a15.5,15.5,0,0,1,1.43-2.71,39,39,0,0,0-.9,13.56,13.86,13.86,0,0,1,1.24-4.89,23.51,23.51,0,0,0-.27,5.33,8.53,8.53,0,0,0,1.95,4.89,101.94,101.94,0,0,1,4.37-18,4,4,0,0,0,.32-2.14,4.1,4.1,0,0,0-.51-1.12c-1.78-3.07-2.74-6.3-4.06-9.55C287.22,263.15,283.6,275.26,283.66,277.74Z"/><rect class="cls-12" x="293.03" y="298.56" width="21.72" height="4.69" transform="translate(608.34 601.23) rotate(179.89)"/><path class="cls-13" d="M287.86,308.45l25.45-.05c1,0,3.3-1.69,3.3-2.71v.12a1.86,1.86,0,0,0-1.86-1.85l-26.9.05a1.86,1.86,0,0,0-1.85,1.86v.73A1.86,1.86,0,0,0,287.86,308.45Z"/><path class="cls-12" d="M283.88,302.73c0,1.92-.35,4.69,1.36,5.73h5.39c3.73,0,6.74-2.58,6.73-5.74s-3-5.72-6.76-5.71S283.87,299.56,283.88,302.73Z"/><path class="cls-12" d="M296.47,304.27c0,3.52,1.42,4.16,4.42,4.15,2.23,0,2.78-2,2.77-4.31s.21-4-2.79-4S296.47,302,296.47,304.27Z"/><path class="cls-12" d="M303.26,304.59c0,2.12,1.13,3.82,3.25,3.82a3.84,3.84,0,0,0,0-7.67C304.38,300.74,303.26,302.47,303.26,304.59Z"/><path class="cls-12" d="M309.29,305a3.75,3.75,0,1,0,3.73-3.41,3.64,3.64,0,0,0-3.49,2.38A3.14,3.14,0,0,0,309.29,305Z"/><path class="cls-13" d="M284.59,298.41a13.13,13.13,0,0,0-.49,2.83,9.39,9.39,0,0,0-.26,2.72c2.93-3,9.51-1.72,11.58-.87.56.23.87.39.87.39v0c2.89-1.47,6.23-.28,7,.06,2.59-1.32,5.64,0,6.3.31a6.13,6.13,0,0,1,3.52-.55,10.83,10.83,0,0,1,3.23,1.31c0-.16-.88-5.12-1-5.68Z"/><path class="cls-14" d="M290,302.6a6.09,6.09,0,0,0-4.79,2.47,5.87,5.87,0,0,1-.36-2,5.38,5.38,0,1,1,10.74,0,5.88,5.88,0,0,1-.29,1.83A6.18,6.18,0,0,0,290,302.6Z"/><path class="cls-14" d="M299.7,303.64a2.77,2.77,0,0,0-2.18,1.12,2.67,2.67,0,0,1-.16-.91,2.44,2.44,0,1,1,4.88,0,2.67,2.67,0,0,1-.13.83A2.81,2.81,0,0,0,299.7,303.64Z"/><path class="cls-14" d="M306.27,303.57a2.17,2.17,0,0,0-1.71.88,2.09,2.09,0,0,1-.13-.72,1.92,1.92,0,1,1,3.83,0,2.1,2.1,0,0,1-.1.65A2.2,2.2,0,0,0,306.27,303.57Z"/><path class="cls-14" d="M313.25,304a2.17,2.17,0,0,0-1.71.88,2.09,2.09,0,0,1-.13-.72,1.92,1.92,0,1,1,3.83,0,2.1,2.1,0,0,1-.1.65A2.2,2.2,0,0,0,313.25,304Z"/><path class="cls-13" d="M297,307.08s-.46-.48-.55-3c0,0-.09,2.65-1.29,3.55Z"/><path class="cls-13" d="M309.92,305.43h0a2.92,2.92,0,0,0,2,3l-4.6,0A3.18,3.18,0,0,0,309.92,305.43Z"/><path class="cls-13" d="M303.5,305.46h0c.24,1.78.9,2.19.9,2.19l-1.77.12A3.57,3.57,0,0,0,303.5,305.46Z"/><path class="cls-7" d="M284.21,234c.88-4.54-.32-9.25-1-13.77,0-.07-8.29-10.12-8.3-10.19,1.2-2.27,12.86,5.5,14.34,3.38a42.9,42.9,0,0,1,5.47-6.49,25,25,0,0,1,6.51-4.62c2.34-1.1-.78-7.58,1.83-7.54.31,4.45,9,16.43,8.26,17.71a22.23,22.23,0,0,0-2.4-3.45c3.3,5.22,1,11.8,1,17.71a8.65,8.65,0,0,0-3.23-5A36.16,36.16,0,0,1,311,242.39c-.57-1.57-.95-4.42-1.9-4.36,3.45,6.92,2.22,30-.62,35.16a14.54,14.54,0,0,0-.16-5.61,43,43,0,0,0-.67,8.85,9.65,9.65,0,0,0,2.66,5.38,3.17,3.17,0,0,1-1.49-1,8.76,8.76,0,0,0,2.32,5.6,4.34,4.34,0,0,1-2.51-1.39c.56,2.25,2.24,4.16,3.5,5.57-3.61,1-9.94-1.48-13.67-1.27-2,.11-3.92.13-5.9,0a10.18,10.18,0,0,0-4.61.46c.37-2.11.86-4.21,1.4-6.2a6,6,0,0,0-2.09,4.76c-1.13-8-1.54-25.79-.43-33.88l-1.68,2.57a111.12,111.12,0,0,1,1.59-25Z"/><path class="cls-8" d="M285.7,289.51a8.37,8.37,0,0,1,2.75-3.91c4.44-3.15,15.66.27,19.95,2.94,2.65,1.66,4.44,4.64,5.94,7.13,2.2,3.65,2.32,6.4,2.43,10a.68.68,0,0,0-.28-.12,10.22,10.22,0,0,0-3.21-4.94,3.28,3.28,0,0,0-1.87,2.26,3.84,3.84,0,0,0-2.2-3.11,4.38,4.38,0,0,0,0,3.64,5.8,5.8,0,0,1-2.74-4.27,2.59,2.59,0,0,0-2.6,1.55,6.11,6.11,0,0,0-.28,3q-1.67-2.24-3.5-4.37c-.25,2-4.48,4.27-6.73,4.19a3.56,3.56,0,0,0,1.92-3.19,6.49,6.49,0,0,0-2.74-1.54,6.68,6.68,0,0,0-6.75,1.73,6.13,6.13,0,0,0-1.27,2.09c-.18-.71-.36-1.48-.6-2.37C283.32,297.61,284.4,292.82,285.7,289.51Z"/><path class="cls-7" d="M284.05,295.08v0a56.69,56.69,0,0,1,3.32-11.26c.41-1,.72,1,1.62.34a5.83,5.83,0,0,1,2.87-.82,26.69,26.69,0,0,1,5.27.15,15.82,15.82,0,0,1,4.72,1.15c.93.42,1.77,1,2.65,1.49,2,1.15,4.24,2,5.78,3.66a30.4,30.4,0,0,1,4.61,6.81c-3-2-13.38.21-12.91,1.73a15.32,15.32,0,0,1-1.5-5c-2.58.09-2.31,3.29-2.2,4.12-.69-.87-2-6.4-8.5-3.89a6.09,6.09,0,0,1,5,2.28,12.79,12.79,0,0,0-5.26-.47,6.51,6.51,0,0,0-5,7.23A7.4,7.4,0,0,1,284.05,295.08Z"/><path class="cls-7" d="M284.05,295.12v0a56.69,56.69,0,0,1,3.32-11.26c.41-1,.72,1,1.62.34a5.83,5.83,0,0,1,2.87-.82,26.69,26.69,0,0,1,5.27.15,15.82,15.82,0,0,1,4.72,1.15c.93.42,1.77,1,2.65,1.49,2,1.15,4.24,2,5.78,3.66a30.22,30.22,0,0,1,4.61,6.78c-3-2-13.38.24-12.91,1.76a15.32,15.32,0,0,1-1.5-5c-2.58.09-2.31,3.29-2.2,4.12-.69-.87-2-6.4-8.5-3.89a6.09,6.09,0,0,1,5,2.28,12.79,12.79,0,0,0-5.26-.47,6.51,6.51,0,0,0-5,7.23A7.4,7.4,0,0,1,284.05,295.12Z"/><path class="cls-12" d="M309.28,252.28s-4.44,6.34-9.24,1.54A7.14,7.14,0,0,0,309.28,252.28Z"/><path class="cls-10" d="M328.46,139.74a22.65,22.65,0,0,0-4.2-9.84,5.26,5.26,0,0,1,3.11,2.22,29.67,29.67,0,0,0-3.11-5.81,14.2,14.2,0,0,0-7.61-8.24,10.76,10.76,0,0,1,3.58,1.35c-.44-5.54-11.79-14.49-22-15.79L293,103l2,5.22c4-.46,13.28,4.1,14.14,9a6.31,6.31,0,0,0-4.07-2,17.72,17.72,0,0,1,9.68,12.65l-2.45-1.39c.82,1.72,2.33,3,3.37,4.6,2.13,3.29,2,7.49,1.89,11.41a10.85,10.85,0,0,0-1.71-3.52l1.3,14.79a4.93,4.93,0,0,1-1.41-2.92,16.86,16.86,0,0,1-1.34,8.6,5.59,5.59,0,0,1,.64,3.48,2.23,2.23,0,0,1,0,.82,4.35,4.35,0,0,0,1-1.35,3.36,3.36,0,0,1,.39-1.45l-.25,1.13a4.37,4.37,0,0,0,.26-1l0,1.49a11.7,11.7,0,0,0,5.23-8.16,5.5,5.5,0,0,1,.37,3,40.35,40.35,0,0,0,2.65-9.35,4.82,4.82,0,0,1,.77,2.31,24.47,24.47,0,0,0,.48-13A4.24,4.24,0,0,1,328.46,139.74Z"/><path class="cls-8" d="M316,162.69l.14-.63c0,.11-.09.21-.14.32S316,162.58,316,162.69Z"/><polygon class="cls-7" points="250.16 96.2 252.62 98.08 250.9 92.19 250.16 96.2"/><polygon class="cls-7" points="247.61 85.39 250.77 87.87 252.53 80.86 247.61 85.39"/><polygon class="cls-7" points="246.19 82.55 249.47 82.91 253.89 74.51 246.19 82.55"/><path class="cls-7" d="M247.4,73.24s3.06,1.1,2.64,2.77l6.05-7S252.86,65.2,247.4,73.24Z"/><path class="cls-7" d="M249.15,63.83s2.32,2,1.72,4.12l7-2.37S257.35,59.32,249.15,63.83Z"/><path class="cls-7" d="M250.35,54.72s6,4,3.87,7.38c0,0,5.62,0,6.24,1.44C260.46,63.54,263.31,54.7,250.35,54.72Z"/><path class="cls-7" d="M258.7,48s2.69,3.62,0,6.81l6.16,5.1S269,51.63,258.7,48Z"/><path class="cls-7" d="M266.16,48.08s.52,4.12-.89,3.43l2.83,1.39S269,49.28,266.16,48.08Z"/><path class="cls-7" d="M282.67,45.16s-1.13,3.89,1.16,5.7l-5.6,5S275,48.28,282.67,45.16Z"/><path class="cls-7" d="M292.9,47s-3.49,3.79-.37,7L282,57.33S282.21,48.41,292.9,47Z"/><path class="cls-7" d="M300.62,57.22s-3.11,1.72-2.88,3.38l-9-2.36S293.15,52.92,300.62,57.22Z"/><path class="cls-7" d="M305.35,65.51s-3.15-.16-2.81,1.69L295,61.7S303,61.64,305.35,65.51Z"/><path class="cls-7" d="M309.51,73.38s-4.07-.13-4.59,1.85l-5.05-7.28S306.9,71,309.51,73.38Z"/><path class="cls-7" d="M310.64,81.34s-2.9.36-3.68,2.84l-5.27-4.31Z"/><path class="cls-7" d="M308.55,91.6c-.54-1-3-2.24-3-2.24l.76-4.38S308.29,88.94,308.55,91.6Z"/><path class="cls-15" d="M254.79,109.69a18.09,18.09,0,0,1,1.83-3.71,57.92,57.92,0,0,1,3.64,7.56l.66-2.17,6.13,5.68,1.64-3.21,6,5.1,1.82-3a20.48,20.48,0,0,1,3.07,3.61,11.06,11.06,0,0,1,.18-3.32l2.86,2.89c.73-.73.61-2.09,1.46-2.68.58-.4,2.9,1.25,3.24,1.87l2.15-3.86a19.09,19.09,0,0,0,3.68,2l2.52-4.27,2.28,1.46,3-7,.65,3.22q1.11-5.7,1.73-11.49c-3.09,3.59-6.28,7.28-10.51,9.41a18.14,18.14,0,0,1-7.81,1.94c-7.73.14-14.65-4.58-22.16-6.42-1.63-.4-4.49-1.85-6.13-1.49C252.61,102.69,254.3,106.5,254.79,109.69Z"/><path class="cls-7" d="M255.26,103.41a24,24,0,0,1,4.75,6.82l1.06-2.71a33,33,0,0,1,5.33,7,31.07,31.07,0,0,1,.25-5.65l7.21,5.75-.15-4.83a7.35,7.35,0,0,1,4.4,4.21,3.59,3.59,0,0,0,.7-2.6,9.43,9.43,0,0,1,4.12,3.45l.74-3.17,4.21,2.72,1.56-3,2.63,2.33,4.61-5a3.24,3.24,0,0,0,1.28,1.78l4-8.16a17.82,17.82,0,0,0-.07,7.06,27,27,0,0,0,2.26-8.06c.54.7,1.5.76,2.27,1.2,1-4-1.37-7.73-2.3-11.8-3.41,0-6.42,2.21-8.88,4.57s-4.73,5.06-7.78,6.59c-4.93,2.46-10.8,1.39-16.19.26a20.06,20.06,0,0,1-5.46-1.7c-2.15-1.16-3.82-3.06-6-4.22S254.6,95,253.21,97c-.9,1.29-.78,3-.5,4.55.24,1.29.6,4.72,2,5.1C254.83,106.25,255.53,103.68,255.26,103.41Z"/><path class="cls-16" d="M258.36,87.25s-3.17-11.56,2.48-20.65c0,0,4.19,3.3,4.61,7.46l3.65-6.44,4.26,3.79,2-3.67,5.06,7.06,3.35-7.41,4,3.32,2.82-7.51a28.63,28.63,0,0,1,8.51,19.43l-5.45-.24L296,85.12l-3.72,0,.95,3.08-4.45-1.57,3.19,8.17-2.25-.36,1.92,4L289,98l.49,4.67-3.17-3.27L284.62,103l-3.34-2.06-3.84,3.93-1.94-2.94L272,103.25l1.66-5-2.49,1.54.53-5.83L269,95.71,270,88l-5.19,2.77.83-3.67-4.15.59,1.64-2.77Z"/><polygon class="cls-13" points="260.84 66.6 265.85 75.93 269.11 67.62 274.22 74.67 276.06 70.17 280.62 78.06 283.79 67.39 288.51 72.42 290.64 63.21 260.84 66.6"/><circle class="cls-17" cx="277.01" cy="84.16" r="1.03" transform="translate(-9.09 39.82) rotate(-8.09)"/><circle class="cls-17" cx="281.22" cy="83.56" r="1.03" transform="translate(-8.96 40.41) rotate(-8.09)"/><path class="cls-13" d="M276.42,86.26a3.59,3.59,0,0,0,6-.85Z"/><path class="cls-17" d="M270.32,79.43a3.52,3.52,0,0,1,3.85,2.43,3.52,3.52,0,1,0-6.87,1A3.52,3.52,0,0,1,270.32,79.43Z"/><path class="cls-17" d="M287.31,77.16a3.52,3.52,0,0,1,3.85,2.43,3.52,3.52,0,1,0-6.87,1A3.52,3.52,0,0,1,287.31,77.16Z"/><path class="cls-10" d="M273.12,90.67c0,.21,0,.43.06.64a6.86,6.86,0,1,0,13.58-1.93c0-.22-.07-.43-.12-.64Z"/><path class="cls-13" d="M283.64,97.53a3.65,3.65,0,0,1-4.72.72l-.78.08a3.68,3.68,0,0,0,6.23-.95Z"/><path class="cls-10" d="M300.35,68.42l9.16,5s-7.05-8-13.8-11.4c0,0,7.22.83,9.64,3.54,0,0-3.17-6.82-15.44-7.45,0,0,5.14-3.1,10.71-.85,0,0-8.12-7.14-17.72-.87,0,0,.72-6.87,10-9.37,0,0-8.6-1-14.64,7.66,0,0-1.18-7.11,4.72-9.64a18,18,0,0,0-12.06,6.79s-2-4.29-4.76-3.72c0,0,2.08,2.75,1.23,3.89,0,0-5.61-5-8.69-4,0,0,8.52,5.22,5.82,11.18,0,0-4.59-8.48-14.16-4.42,0,0,10.42.72,10,8.39,0,0-2.25-5.09-11.39.77,0,0,7.49-2.08,8.48,1.33,0,0-5.71-2.06-10,8,0,0,4.05-4.81,8.2-4.21l-5,4.43-4.46,9.09,7.35-7.81s-5.67,7.74-5.93,10.66L252,81.73s-3.75,7-1.83,14.47a3,3,0,0,0,.9-2s1.48,10.45,3.07,13.27l.69-9.4,5,6.73.19-2.23,4.59,6.11,1.07-5.57,6.06,4.55.5-3.62,4.92,6.07.62-2.79,3.79,2.85,2.09-3.17,1.54,1.3,1.33-2.56,2.89,3.65,3.49-5.23,1.8,1.94,2.66-6.3,2,1.92,2-7.55s5,4.36,5.11,8.58c0,0,2.94-6.68-.32-16.53,0,0,2.13,3.08,2.46,5.4,0,0-.16-5.9-1.2-7.27s-5-4.2-5-4.2l8.29,1.19Zm-1.19,14.21-5.45-.24L296,85.12l-3.72,0,.95,3.08-4.45-1.57,3.19,8.17-2.25-.36,1.92,4L289,98l.49,4.67-3.17-3.27L284.62,103l-3.34-2.06-3.84,3.93-1.94-2.94L272,103.25l1.66-5-2.49,1.54.53-5.83L269,95.71,270,88l-5.19,2.77.83-3.67-4.15.59,1.64-2.77-4.74,2.37s-3.17-11.56,2.48-20.65c0,0,4.19,3.3,4.61,7.46l3.65-6.44,4.26,3.79,2-3.67,5.06,7.06,3.35-7.41,4,3.32,2.82-7.51A28.63,28.63,0,0,1,299.15,82.64Z"/><path class="cls-10" d="M326.74,133.26a14,14,0,0,0,7.5,7c-.87.23-7.14-1.51-7.14-1.51s10.75,9.32,11.75,9.41-10.29,2.58-10.29,2.58l-9.56-.62-1.63-10.33,4.88-8.11Z"/><path class="cls-7" d="M323,132.81c2.88,5.38,5.38,9.75,8.25,10.38-2.37.5-5.12-1.87-5.12-1.87s8.25,7.75,15.25,8c.63.75-5.87.75-5.87.75s23.5,5.25,28.25,3.88,6.25,5,5.25,5-34.12,1.63-34.12,1.63-12.75-6.62-13-7.62S320,142.19,320,142.19Z"/><path class="cls-7" d="M318.47,156.59c.5,5.36,9.84,10.23,10.83,14.6a22.77,22.77,0,0,0,1.34-3.88s2.83-5.55,2.43-6-11.82-12.62-11.82-12.62Z"/><path class="cls-10" d="M301.79,115c2.45,3.61,7.89,6,8.46,9.88a16.93,16.93,0,0,0-1.47-7.82,12.49,12.49,0,0,1,4.51,4.41C314,119.15,313,118,313,118l2.45-.14-6.2-8.22-8.8,1.15-1.59,4.9Z"/><path class="cls-15" d="M267.27,259.45c.13-.57.25-1.14.37-1.71l-1.52-1.1c-1,5.57-4.93,16.14-5.88,18.82,2.84-.95,3.79-6.63,3.79-6.63s-2.84,18.3-5.84,21.3c2.05-1.89,4.73,3,4.1,6.79a3.27,3.27,0,0,0,1.43-.72,3.11,3.11,0,0,0-.27-.82s-.36-2.86-.65-5.16a27.53,27.53,0,0,0,.48-4.44,13.86,13.86,0,0,1,.36,5,39,39,0,0,0,1.51-13.51,15.49,15.49,0,0,1,.93,2.92c.49-2.42-.92-15-.92-15l0,0c.51-3.33.88-6.36,1-8.64Z"/><path class="cls-15" d="M290.08,286.85c-3.17-2.67-4-18-4-18a16.14,16.14,0,0,0,3.33,4.83c-1.67-1.67-3.33-11.67-2.67-18l0,0c-.32,2.94-.48,6.82-.5,11-1.06,3.78-2.58,9.44-2.54,11a15.5,15.5,0,0,1,1.43-2.71,39,39,0,0,0-.9,13.56,13.86,13.86,0,0,1,1.24-4.89,23.52,23.52,0,0,0-.27,5.33c0,.28.08.57.13.85-.35,1.23-.67,2.49-.93,3.7a5.25,5.25,0,0,0,2.74.34c-2.46-1.42-1-12.73-1-12.73S287.92,286,290.08,286.85Z"/><path class="cls-15" d="M329.3,171.19a9.83,9.83,0,0,0,.88-2.29c.65,1.25,4.46,1.75,5.51,2a43.45,43.45,0,0,0,12.58,1l.21-.1s-10.12-.21-16.63-4.71c1.62-1,3.68-.88,9.27-1.18-21.92-1.47-24.72-18-24.72-18s3.68,5.3,4,4.27c-3.09-3.68-5.59-17.22-7.5-20.31,1.47,3.68.74,17.66.74,17.66l1.32-5s.15,11.48,2.05,14.93a30.5,30.5,0,0,1,3.07,11c.11-3.32.2-6.64.25-10C323.19,164.41,328.56,167.94,329.3,171.19Z"/><path class="cls-17" d="M310.1,172c-5.76-10.7-15.2-48.66-16.69-56.11l-.29.49-3.68-2c.26,2.6.18,14,.49,17.52a11.2,11.2,0,0,1-11.14,12.2h-.27a11.2,11.2,0,0,1-11.16-12.25c.33-3.47,1-15,1.33-18.08L267.1,117l-2.31-2.1c-.41,6.16-5.35,42.41-17.69,60.1,2.41,14.44-16.65,63.58-15.17,74.56.17-11.56,34.4-3.6,44.39,1.49,10.83,5.52,22.57,11.36,40.78,1C316.1,231,309.1,183,310.1,172Z"/><g class="cls-18"><path class="cls-19" d="M256.75,154C256.1,193,245.1,211,241.57,243.79"/><path class="cls-19" d="M257.48,245c2.16-37,9.61-54,7.68-128.61"/><path class="cls-19" d="M274.8,143.55C276.1,166,273.1,208,271.1,249"/><path class="cls-19" d="M285.1,255c1-31-.76-112.42-.76-112.42"/><path class="cls-19" d="M292,116.64c3.15,42.38,5.29,140.66,5.29,140.66"/><path class="cls-19" d="M308.47,255.24c.63-28.21-8.76-110.14-8.76-110.14"/></g><path class="cls-20" d="M297.1,187,296,190a8.19,8.19,0,0,0,1.87,8.67c5.73,5.72,16,16.74,16.1,22.45-.86-9.08-3.61-29.59-3.61-29.59Z"/><circle class="cls-17" cx="279.6" cy="164.53" r="13.5"/><path class="cls-21" d="M275.1,159.63V168a1,1,0,0,0,1,1h2v2.75a1.5,1.5,0,0,0,1.5,1.5h0a1.5,1.5,0,0,0,1.5-1.5V169h2a1,1,0,0,0,1-1v-8.39a4.5,4.5,0,0,0-4.5-4.5h0A4.5,4.5,0,0,0,275.1,159.63Z"/><rect class="cls-22" x="358.49" y="158.19" width="7" height="19" rx="3.5" ry="3.5" transform="translate(262.87 -218.75) rotate(50.76)"/><rect class="cls-23" x="357.7" y="159.87" width="5" height="16" rx="2.5" ry="2.5" transform="translate(262.35 -217.29) rotate(50.76)"/><path class="cls-15" d="M374,142.89h0a10.5,10.5,0,0,1,10.5,10.5v16.08a3.42,3.42,0,0,1-3.42,3.42H366.92a3.42,3.42,0,0,1-3.42-3.42V153.39a10.5,10.5,0,0,1,10.5-10.5Z" transform="translate(259.69 -231.65) rotate(50.76)"/><path class="cls-7" d="M372.66,142.54h0a9,9,0,0,1,9,9v16.83a3.17,3.17,0,0,1-3.17,3.17H366.83a3.17,3.17,0,0,1-3.17-3.17V151.54a9,9,0,0,1,9-9Z" transform="translate(258.54 -230.92) rotate(50.76)"/><rect class="cls-22" x="340.58" y="148.91" width="7" height="19" rx="3.5" ry="3.5" transform="translate(407.39 -215.06) rotate(74.9)"/><rect class="cls-24" x="339.87" y="149.83" width="5" height="16" rx="2.5" ry="2.5" transform="matrix(0.26, 0.97, -0.97, 0.26, 405.57, -213.83)"/><path class="cls-7" d="M359,139.37h0a10.5,10.5,0,0,1,10.5,10.5v16.08a3.42,3.42,0,0,1-3.42,3.42H352a3.42,3.42,0,0,1-3.42-3.42V149.87a10.5,10.5,0,0,1,10.5-10.5Z" transform="translate(414.55 -232.49) rotate(74.9)"/><path class="cls-10" d="M358.17,138.55h0a9,9,0,0,1,9,9v16.83a3.17,3.17,0,0,1-3.17,3.17H352.34a3.17,3.17,0,0,1-3.17-3.17V147.55a9,9,0,0,1,9-9Z" transform="translate(412.64 -232.62) rotate(74.9)"/><path class="cls-22" d="M332.72,152.22h43a0,0,0,0,1,0,0v52.09a5.91,5.91,0,0,1-5.91,5.91H332.72a0,0,0,0,1,0,0v-58A0,0,0,0,1,332.72,152.22Z" transform="translate(91.76 -117.83) rotate(21.63)"/><path class="cls-23" d="M296.19,139.31h51a0,0,0,0,1,0,0v51.13a6.87,6.87,0,0,1-6.87,6.87H303.06a6.88,6.88,0,0,1-6.88-6.88V139.31A0,0,0,0,1,296.19,139.31Z" transform="translate(84.71 -106.74) rotate(21.63)"/><path class="cls-25" d="M308.68,132l-9.39,8.39a6,6,0,0,0,1.8,10.11L333.2,163.2a10.81,10.81,0,0,0,11.19-2l11.69-10.45Z"/><path class="cls-23" d="M356.09,150.76l1.35,15.62a10.81,10.81,0,0,0,6.79,9.12l13.52,5.36a6,6,0,0,0,8.24-6.13l-1.08-12.54Z"/><path class="cls-17" d="M373.17,191.82c-.77,2.06-4.72,3.84-6.58,2.49-4.5-3.28-6.5.72-3,3.31,2.21,1.63,6.16,2.19,6.59,1.68s-3.87,2.3-6.91,0c-1.28-1-4.3.56-1.64,3.28,1.46,1.5,5.16,2.6,6.35,2.25-1.8,1-1.89.25-4.89.25-1.59,0-2.18,2.41,1,4,2,1,3.76.29,5.31-.08,1.15-.28,2.69.08,2.2-3.2a3.94,3.94,0,0,0,2-5.75c3-.53,1.45-5.44,1.45-5.44Z"/><path class="cls-15" d="M255.88,140.81a1.88,1.88,0,0,0,1,1.44c-.92-3.21,1.22-6.57,3-8.82.2,6.67,1.74-3.47,1.76-4.37-2.83,3.37-10.91,10.31-14.86,10.71,1.95,1.41,8.23-.64,8.23-.64l.8-.78A7.46,7.46,0,0,0,255.88,140.81Z"/><path class="cls-15" d="M244,151.76c2-2,6.56-3.85,7.92-6.29a54.62,54.62,0,0,0,3.07-6.28l0-.07s-13.71,11.22-21.26,12.44c6.3-.75,9-2.64,9-2.64l-13.17,12.31a74.49,74.49,0,0,0,17.61-15.17A15.68,15.68,0,0,1,244,151.76Z"/><path class="cls-15" d="M273.6,92.26a12.45,12.45,0,0,0,4.08.36,17,17,0,0,0,4.15-.7,17.23,17.23,0,0,1-4.1,1.2,13.16,13.16,0,0,1-4.37.12.5.5,0,1,1,.17-1h.06Z"/><rect class="cls-6" x="83.1" y="168.03" width="59" height="59" rx="5" ry="5"/><rect class="cls-22" x="109.1" y="198.03" width="7" height="19" rx="3.5" ry="3.5"/><rect class="cls-24" x="109.1" y="201.03" width="5" height="16" rx="2.5" ry="2.5"/><path class="cls-13" d="M112.6,177h0a10.5,10.5,0,0,1,10.5,10.5v16.08a3.42,3.42,0,0,1-3.42,3.42H105.52a3.42,3.42,0,0,1-3.42-3.42V187.53A10.5,10.5,0,0,1,112.6,177Z"/><path class="cls-12" d="M102.1,190.76h18.11a2.89,2.89,0,0,0,2.89-2.89h0a10.73,10.73,0,0,0-9.56-10.81,10.5,10.5,0,0,0-11.44,10.46Z"/><path class="cls-16" d="M111.1,178h0a9,9,0,0,1,9,9v16.83a3.17,3.17,0,0,1-3.17,3.17H105.26a3.17,3.17,0,0,1-3.17-3.17V187A9,9,0,0,1,111.1,178Z"/><rect class="cls-6" x="83.1" y="98.03" width="59" height="59" rx="5" ry="5"/><rect class="cls-22" x="109.1" y="128.03" width="7" height="19" rx="3.5" ry="3.5"/><rect class="cls-24" x="109.1" y="131.03" width="5" height="16" rx="2.5" ry="2.5"/><path class="cls-26" d="M112.6,107h0a10.5,10.5,0,0,1,10.5,10.5v16.08a3.42,3.42,0,0,1-3.42,3.42H105.52a3.42,3.42,0,0,1-3.42-3.42V117.53A10.5,10.5,0,0,1,112.6,107Z"/><path class="cls-3" d="M111.1,108h0a9,9,0,0,1,9,9v16.83a3.17,3.17,0,0,1-3.17,3.17H105.26a3.17,3.17,0,0,1-3.17-3.17V117A9,9,0,0,1,111.1,108Z"/><rect class="cls-6" x="153.1" y="168.03" width="59" height="59" rx="5" ry="5"/><rect class="cls-22" x="179.1" y="198.03" width="7" height="19" rx="3.5" ry="3.5"/><rect class="cls-24" x="179.1" y="201.03" width="5" height="16" rx="2.5" ry="2.5"/><path class="cls-7" d="M182.6,177h0a10.5,10.5,0,0,1,10.5,10.5v16.08a3.42,3.42,0,0,1-3.42,3.42H175.52a3.42,3.42,0,0,1-3.42-3.42V187.53A10.5,10.5,0,0,1,182.6,177Z"/><path class="cls-10" d="M181.1,178h0a9,9,0,0,1,9,9v16.83a3.17,3.17,0,0,1-3.17,3.17H175.26a3.17,3.17,0,0,1-3.17-3.17V187A9,9,0,0,1,181.1,178Z"/><rect class="cls-22" x="191.46" y="71.69" width="7" height="19" rx="3.5" ry="3.5" transform="translate(26.66 -46.39) rotate(14.55)"/><rect class="cls-23" x="191.11" y="74.39" width="5" height="16" rx="2.5" ry="2.5" transform="translate(26.92 -46.01) rotate(14.55)"/><path class="cls-15" d="M198.85,51.19h0a10.5,10.5,0,0,1,10.5,10.5V77.77a3.42,3.42,0,0,1-3.42,3.42H191.77a3.42,3.42,0,0,1-3.42-3.42V61.69a10.5,10.5,0,0,1,10.5-10.5Z" transform="translate(23.01 -47.85) rotate(14.55)"/><path class="cls-7" d="M197.28,51.8h0a9,9,0,0,1,9,9V77.63a3.17,3.17,0,0,1-3.17,3.17H191.44a3.17,3.17,0,0,1-3.17-3.17V60.8a9,9,0,0,1,9-9Z" transform="matrix(0.97, 0.25, -0.25, 0.97, 22.99, -47.45)"/><path class="cls-17" d="M191.75,80.07c-.27,2.18,1.08,7.3,3.11,6.22,2.76-1.47,4.56,2.39,1.34,3.73-2.53,1.06-8.54-2.67-9.28-3.34-.49-.45,4,4.44,8.74,4.23,1.61-.07,3.6,1.2.14,2.78-3.1,1.42-8.56-.58-9.45-1.44a8.74,8.74,0,0,0,8.3,3.21c1.57-.28,2.59,2.88-.84,3.81-6,1.64-8.68-2.43-8.68-2.43s-2.76-3.76,0-4.74a3.94,3.94,0,0,1,.86-6c-2.43-1.87,1.23-5.49,1.23-5.49Z"/><circle class="cls-10" cx="285.1" cy="34.03" r="2"/><circle class="cls-10" cx="292.1" cy="34.03" r="2"/><circle class="cls-10" cx="299.1" cy="34.03" r="2"/><rect class="cls-10" x="106.1" y="28.03" width="169" height="13" rx="6.5" ry="6.5"/><polyline class="cls-27" points="82.1 30.03 78.1 34.03 82.1 38.03"/><polyline class="cls-27" points="93.1 38.03 97.1 34.03 93.1 30.03"/><path class="cls-28" d="M247.75,174.62s-1.6,6.48-7.08,8.9"/><path class="cls-28" d="M247.75,174.62c-10-16.79,3.82-15.37,0,0a6.24,6.24,0,0,1-8.58,1.73"/><path class="cls-3" d="M83.1,65.63V74a1,1,0,0,0,1,1h2v2.75a1.5,1.5,0,0,0,1.5,1.5h0a1.5,1.5,0,0,0,1.5-1.5V75h2a1,1,0,0,0,1-1V65.63a4.5,4.5,0,0,0-4.5-4.5h0A4.5,4.5,0,0,0,83.1,65.63Z"/><line class="cls-29" x1="100.1" y1="67.03" x2="125.1" y2="67.03"/><line class="cls-29" x1="100.1" y1="72.03" x2="116.1" y2="72.03"/><circle class="cls-23" cx="141.1" cy="100.03" r="11"/><circle class="cls-30" cx="137.6" cy="96.53" r="2"/><circle class="cls-30" cx="144.6" cy="103.53" r="2"/><line class="cls-31" x1="137.1" y1="104.03" x2="145.6" y2="95.53"/><path class="cls-17" d="M374.71,194c.38-1-.62-5-.62-5l-1,3Z"/><path class="cls-32" d="M314.13,169.28,311,177.06a1,1,0,0,0,.56,1.31l1.85.75-1.4,3.32a1.5,1.5,0,0,0,.83,2h0a1.5,1.5,0,0,0,2-.83l1.4-3.32L318,181a1,1,0,0,0,1.31-.56l3.14-7.78a4.5,4.5,0,0,0-2.49-5.86h0A4.5,4.5,0,0,0,314.13,169.28Z"/><path class="cls-15" d="M110.5,178a9.2,9.2,0,0,0-8.4,9.29v3.19a2,2,0,0,0,2,2h5a2,2,0,0,1,2,2v2.61a2.5,2.5,0,0,0,2.5,2.5h0a2.5,2.5,0,0,0,2.5-2.5v-2.61a2,2,0,0,1,2-2h0a2,2,0,0,0,2-2V187A9,9,0,0,0,110.5,178Z"/></g></g></g></svg>